<svg version="1.1" id="Layer_1" xmlns="http://www.w3.org/2000/svg" xmlns:xlink="http://www.w3.org/1999/xlink" x="0px" y="0px"
	 width="100%" viewBox="0 0 244 106" enable-background="new 0 0 244 106" xml:space="preserve">
<path fill="#FCFAFB" opacity="1.000000" stroke="none" 
	d="
M186.000000,107.000000 
	C124.000000,107.000000 62.500008,107.000000 1.000008,107.000000 
	C1.000005,71.666672 1.000005,36.333344 1.000003,1.000013 
	C82.333321,1.000009 163.666641,1.000009 244.999969,1.000004 
	C244.999985,36.333321 244.999985,71.666641 245.000000,106.999985 
	C225.500000,107.000000 206.000000,107.000000 186.000000,107.000000 
M168.299606,21.007328 
	C168.249756,21.328882 168.199905,21.650434 167.856216,22.638765 
	C165.364594,23.932032 162.937042,27.155663 160.171341,22.287825 
	C159.790848,21.840677 159.410355,21.393530 158.996872,20.993572 
	C158.996872,20.993572 159.052200,20.977610 158.963104,20.353634 
	C158.334335,19.537619 157.705566,18.721603 156.997986,17.984127 
	C156.997986,17.984127 157.093262,17.926991 156.766998,17.187399 
	C148.884628,17.126904 141.002258,17.066408 132.968002,17.930914 
	C132.959961,22.534826 132.815018,27.145723 133.049286,31.737274 
	C133.101639,32.763626 134.484360,33.722103 135.785873,34.819553 
	C136.143036,34.781857 136.500183,34.744156 137.797089,34.906281 
	C142.387756,34.906281 146.978424,34.906281 151.569092,34.906281 
	C151.698700,34.488514 151.828323,34.070751 151.957932,33.652985 
	C150.719849,33.059578 149.514740,32.055313 148.237274,31.952820 
	C144.924423,31.687031 141.579727,31.818163 138.022919,31.152517 
	C138.020859,29.778296 138.018799,28.404072 138.540649,27.195482 
	C138.709061,27.123125 138.877457,27.050768 139.935867,27.155893 
	C142.967606,27.116386 145.999329,27.076880 149.761993,26.858196 
	C149.492783,25.648632 149.223572,24.439070 148.462936,23.111832 
	C148.296341,23.087006 148.129745,23.062180 147.876022,22.393927 
	C148.623352,21.713305 149.370682,21.032681 150.756485,20.294231 
	C151.145462,20.150845 151.534439,20.007460 152.552170,19.890457 
	C153.220367,20.356842 153.888580,20.823229 154.673096,21.259169 
	C154.673096,21.259169 154.606216,21.359089 154.712616,21.960688 
	C155.283585,22.774153 155.854553,23.587618 156.507217,24.459740 
	C156.507217,24.459740 156.508560,24.560305 156.631943,25.079824 
	C156.974274,25.470243 157.316605,25.860662 158.004791,26.026766 
	C158.004791,26.026766 157.662827,26.259521 157.761932,26.858170 
	C158.145599,27.306120 158.529251,27.754070 159.000198,28.594587 
	C159.089157,28.860094 159.251556,29.068304 159.655106,29.812366 
	C160.041367,30.267979 160.427643,30.723589 160.931686,31.055990 
	C160.931686,31.055990 160.779984,31.133705 160.856918,31.725662 
	C161.234726,32.161053 161.612534,32.596447 162.005768,33.001400 
	C162.005768,33.001400 161.971939,33.005245 162.088226,33.645103 
	C162.687897,34.304047 163.287582,34.962990 163.887238,35.621922 
	C164.376129,34.881233 164.865005,34.140545 165.364746,33.324509 
	C165.364746,33.324509 165.426743,33.280315 165.922119,33.001186 
	C166.225494,32.338661 166.528870,31.676136 167.047958,30.328657 
	C169.029297,27.262758 171.010635,24.196859 173.706085,20.941978 
	C174.186890,20.386541 174.667709,19.831102 175.882385,18.427893 
	C175.882385,23.299465 175.711090,27.150295 175.978485,30.970415 
	C176.067978,32.248867 177.277283,33.448933 178.793762,34.837475 
	C183.202988,34.804546 187.612228,34.771618 192.593079,34.907692 
	C193.300735,34.670811 194.008408,34.433933 194.949631,33.462864 
	C195.088806,31.307039 195.208984,29.172005 191.058792,30.787510 
	C188.058502,30.773516 185.058197,30.759523 181.747131,30.373203 
	C181.304428,30.202839 180.861725,30.032475 180.263306,29.294632 
	C180.323853,28.911049 180.384384,28.527466 180.919312,28.118160 
	C181.298065,27.848871 181.676804,27.579582 182.956314,27.258104 
	C185.680862,27.191669 188.405396,27.125235 191.840637,26.974051 
	C193.359802,25.189215 194.057602,23.632036 189.917313,23.080275 
	C187.274414,23.142567 184.631500,23.204861 181.522842,23.064964 
	C181.371948,22.988338 181.221039,22.911713 181.261276,22.089247 
	C185.169510,21.567799 189.077728,21.046350 193.822632,20.142019 
	C194.927505,17.118107 193.811371,15.978599 190.674683,16.060968 
	C185.071381,16.208113 179.460190,16.070234 173.858368,16.245384 
	C172.803680,16.278362 171.777222,17.214954 170.949158,17.778015 
	C170.949158,17.778015 170.733475,17.772427 170.236465,18.038073 
	C169.993851,18.539541 169.751236,19.041010 169.545883,19.620005 
	C169.545883,19.620005 169.460922,19.633539 169.053284,19.901142 
	C168.821167,20.156242 168.712875,20.456068 168.931915,20.933266 
	C168.931915,20.933266 168.758606,20.763031 168.299606,21.007328 
M234.481155,75.877579 
	C234.627991,75.577385 234.774826,75.277191 234.969269,74.124779 
	C233.808273,73.776924 232.647369,73.124931 231.486282,73.124664 
	C158.341827,73.107994 85.197357,73.144424 11.359587,73.254463 
	C11.913890,74.100792 12.468193,74.947113 13.936899,75.893051 
	C17.631098,75.970825 21.325298,76.048607 25.586428,76.638603 
	C28.051771,76.463913 30.517117,76.289215 33.910896,75.960236 
	C44.613308,76.015137 55.315716,76.070038 66.635391,76.657204 
	C70.750816,76.480774 74.866241,76.304344 79.874496,75.971794 
	C82.589188,76.019615 85.303886,76.067429 88.611938,76.641602 
	C91.734978,76.466820 94.858017,76.292038 98.732948,75.963684 
	C99.494972,76.014877 100.256996,76.066063 101.644142,76.655807 
	C107.423630,76.476456 113.203125,76.297112 119.910500,75.961426 
	C126.612625,76.012123 133.314743,76.062820 140.560211,76.622101 
	C142.701187,76.452499 144.842163,76.282890 147.781540,75.959831 
	C148.860352,76.011925 149.939148,76.064026 151.643768,76.655647 
	C158.756393,76.477303 165.869019,76.298958 173.687561,75.970009 
	C177.131454,76.023560 180.575363,76.077110 184.616501,76.651703 
	C187.738434,76.474220 190.860367,76.296738 194.734039,75.966621 
	C195.495331,76.021240 196.256622,76.075859 197.502548,76.614304 
	C198.995270,76.457123 200.488007,76.299942 202.778885,75.983009 
	C203.858948,76.032776 204.939026,76.082535 206.644547,76.664177 
	C211.423416,76.487228 216.202271,76.310287 221.862991,75.977043 
	C224.248001,76.027641 226.633011,76.078247 229.507034,76.614479 
	C231.007599,76.445801 232.508179,76.277115 233.931946,75.957390 
	C233.931946,75.957390 233.942947,75.788284 234.481155,75.877579 
M70.301262,18.977131 
	C69.689896,18.147573 69.078522,17.318016 68.245186,15.870866 
	C67.656723,14.965875 67.068260,14.060884 66.157684,12.660508 
	C65.214165,14.364161 64.525658,15.607364 63.302601,17.198563 
	C62.673386,18.291107 62.044167,19.383650 60.956772,20.915054 
	C60.205097,22.188082 59.453419,23.461111 58.251118,25.052563 
	C58.076393,25.558296 57.901669,26.064028 57.697548,26.712502 
	C57.697548,26.712502 57.555729,26.746040 56.995323,27.098118 
	C55.396175,29.545650 53.797031,31.993183 52.197884,34.440716 
	C52.604092,34.910038 53.010296,35.379360 53.416504,35.848686 
	C55.414196,34.457863 57.811459,33.403019 59.323959,31.604231 
	C62.211594,28.170038 70.691635,27.648333 72.890175,31.434713 
	C74.663452,34.488701 76.703568,35.677979 79.956474,34.623775 
	C79.631294,33.419659 79.308632,32.224861 79.728928,30.936907 
	C82.965813,33.886906 86.674454,35.664272 91.150085,35.200386 
	C96.345406,34.661907 98.532433,32.570477 97.997444,28.871082 
	C92.141586,33.620949 85.601814,33.399990 81.581032,25.627586 
	C85.824440,18.826063 89.832001,18.133078 99.992889,23.342293 
	C98.782883,20.569813 98.499489,18.161983 97.171043,17.205307 
	C93.135910,14.299397 85.350731,15.251654 81.195160,18.582321 
	C76.749222,22.145720 77.083687,26.488636 78.351425,31.060001 
	C76.396683,28.237122 74.441940,25.414242 72.285736,22.017094 
	C71.698441,21.197857 71.111145,20.378620 70.301262,18.977131 
M118.997650,28.909386 
	C118.997650,30.504845 118.997650,32.100304 118.997650,33.681728 
	C123.815216,33.723305 124.165977,32.074291 123.402092,19.874577 
	C123.180435,16.334642 121.534386,16.705008 118.964928,17.567785 
	C119.032646,19.041557 119.099739,20.501669 118.864311,22.435745 
	C118.575935,22.669975 118.287560,22.904203 117.100288,22.946699 
	C113.736191,23.002428 110.372086,23.058159 106.557251,22.791174 
	C106.338860,22.494604 106.120461,22.198034 106.068573,21.063480 
	C106.068573,19.599037 106.068573,18.134592 106.068573,16.454744 
	C104.555916,16.454744 103.342110,16.454744 101.946167,16.454744 
	C101.946167,22.615377 101.946167,28.526848 101.946167,34.438320 
	C102.335678,34.715683 102.725189,34.993046 103.114700,35.270412 
	C103.793518,34.468845 104.472336,33.667278 105.353104,32.270382 
	C105.604675,30.562191 105.856247,28.854000 107.010040,27.027542 
	C110.676941,26.937519 114.343834,26.847496 118.490631,27.098055 
	C118.719849,27.414570 118.949074,27.731085 118.997650,28.909386 
M87.727493,90.630272 
	C87.481392,91.315254 87.235298,92.000229 86.178909,92.869919 
	C82.779144,92.799919 79.379387,92.729912 75.836052,92.353088 
	C75.688934,92.166985 75.498596,92.053070 74.965019,91.265068 
	C73.075218,88.358360 73.209656,85.515785 75.845894,83.272255 
	C78.911339,80.663437 82.443031,80.647217 86.088150,82.218491 
	C87.447754,82.804573 88.935608,83.093163 90.364983,83.517395 
	C82.730064,75.810532 73.371468,78.130753 69.200905,87.348045 
	C69.065620,87.397697 68.930344,87.447342 68.795067,87.496994 
	C69.065742,87.580338 69.336418,87.663681 69.969528,88.317726 
	C74.490868,97.304924 81.672928,99.545540 88.854698,94.006065 
	C89.573723,93.419746 90.292747,92.833435 91.532364,91.724251 
	C91.909309,90.266624 92.286255,88.808998 92.575241,87.691513 
	C88.245735,87.691513 84.527130,87.691513 80.808525,87.691513 
	C80.795204,88.201271 80.781883,88.711021 80.768555,89.220779 
	C83.169556,89.524429 85.570549,89.828072 87.727493,90.630272 
M101.202019,86.039558 
	C100.580093,83.734024 99.958168,81.428490 99.336243,79.122963 
	C98.897354,79.083031 98.458473,79.043098 98.019592,79.003166 
	C95.957863,83.928940 97.595001,89.361099 97.217438,94.503906 
	C97.174385,95.090416 98.585403,95.783676 100.200974,97.195244 
	C100.200974,93.529343 100.200974,91.292175 100.200974,89.049156 
	C101.705498,88.860443 102.846199,88.717369 104.848999,88.769264 
	C106.903091,88.696945 108.957184,88.624626 111.860268,88.761040 
	C112.863503,91.126045 113.866737,93.491058 114.872864,95.862885 
	C116.508347,95.206795 118.188034,85.172447 116.683495,80.749451 
	C116.379112,79.854645 114.641785,79.447281 114.231285,79.206291 
	C112.909721,82.068016 111.956306,84.132545 110.115402,86.042816 
	C107.422173,86.100182 104.728935,86.157539 101.202019,86.039558 
M35.065456,65.380829 
	C35.703609,63.584507 36.341763,61.788185 37.464043,59.678776 
	C37.554577,59.128754 37.645115,58.578728 38.068630,57.389915 
	C38.395897,56.267147 38.723160,55.144382 39.562065,53.701496 
	C39.702904,53.121841 39.843746,52.542187 40.892792,51.805782 
	C41.345211,56.050919 41.797630,60.296055 41.540390,64.270271 
	C41.039608,64.307610 40.538830,64.344940 39.238197,64.178291 
	C36.480728,69.609917 37.597157,71.955605 43.110023,71.806435 
	C48.531704,71.659729 53.940331,71.041817 59.362072,70.883392 
	C67.150856,70.655777 74.946320,70.657166 83.333740,70.711838 
	C83.531342,70.658905 83.728935,70.605980 84.645119,70.793488 
	C91.063446,70.788681 97.481781,70.783875 104.733696,70.808434 
	C105.813675,70.624771 106.893654,70.441109 108.449303,70.454697 
	C109.063034,70.199120 109.676765,69.943542 110.738686,69.709282 
	C110.738686,69.709282 111.026360,69.364944 111.754959,69.300652 
	C113.848061,67.204437 115.941162,65.108223 118.604889,62.504135 
	C123.428886,48.968906 116.734222,39.222206 102.454216,39.039551 
	C97.301750,38.973644 92.148018,39.007114 86.311638,38.766441 
	C85.847488,38.869774 85.383347,38.973106 83.994926,38.998146 
	C74.995537,38.994171 65.996147,38.990192 56.739510,38.526390 
	C56.163204,38.666817 55.586899,38.807247 54.074081,38.968616 
	C50.168095,38.980209 46.249557,39.189175 42.360046,38.941761 
	C39.173443,38.739052 37.359699,39.601746 37.085110,43.545521 
	C36.951698,44.152786 36.818283,44.760052 36.156548,45.827335 
	C35.543133,47.587891 34.929718,49.348450 33.579914,51.212662 
	C33.448311,52.162727 33.316708,53.112797 32.552422,54.031708 
	C32.039890,53.676659 31.527357,53.321609 30.931446,52.307640 
	C30.812994,51.887825 30.694540,51.468006 30.650425,50.354748 
	C29.881445,48.680988 29.112467,47.007233 28.399042,44.702026 
	C28.111765,44.149014 27.824488,43.596001 27.611198,42.269691 
	C26.812685,41.187344 26.066088,39.218754 25.207117,39.168438 
	C20.149109,38.872147 15.064929,39.022648 10.013964,39.022648 
	C10.013964,41.494759 10.013964,43.312843 10.013964,45.315994 
	C16.030153,45.533195 13.456254,50.037666 13.710203,52.960850 
	C14.022970,56.561073 13.784911,60.209148 13.784911,63.752502 
	C11.915272,64.064682 10.515310,64.298439 9.179735,64.521446 
	C8.937049,72.273628 9.063982,72.456161 16.515558,71.799828 
	C18.912674,71.588699 21.269442,70.919487 23.791813,70.431366 
	C23.888916,68.599396 23.984272,66.800346 24.561451,64.558144 
	C24.744226,63.935261 24.927004,63.312374 25.769505,63.085899 
	C26.619427,65.598465 27.384319,68.147446 28.425119,70.578285 
	C28.557665,70.887848 30.131420,70.580338 31.750994,70.732498 
	C32.746059,69.164978 33.741127,67.597466 35.065456,65.380829 
M215.626740,82.525909 
	C214.758316,85.917007 216.584717,87.477310 219.561798,88.023636 
	C222.139603,88.496681 224.790863,88.582565 227.357010,89.100441 
	C228.628082,89.356964 229.780640,90.200668 230.986816,90.778702 
	C229.885101,91.806328 228.800308,93.677132 227.678406,93.699646 
	C224.608383,93.761292 221.528412,92.991928 218.440674,92.660797 
	C217.087982,92.515732 215.706802,92.636391 214.338547,92.636391 
	C219.311768,96.550262 224.709106,97.520615 230.067551,95.684204 
	C231.848587,95.073814 232.850815,92.190933 234.209091,90.346970 
	C232.503830,89.159187 230.855194,87.877838 229.081070,86.803833 
	C225.772537,84.800964 220.672607,87.805473 219.057831,82.403358 
	C223.637207,82.403358 228.216583,82.403358 232.795944,82.403358 
	C225.936691,77.608429 220.127975,77.912399 215.626740,82.525909 
M62.196030,80.923012 
	C60.933075,80.613243 59.670116,80.303482 57.769230,79.362663 
	C52.212894,79.362663 46.656559,79.362663 40.956287,79.362663 
	C40.956287,85.234673 40.956287,90.602409 40.956287,95.822372 
	C47.405231,95.822372 53.140091,95.822372 58.874947,95.822372 
	C59.001457,95.445404 59.127968,95.068436 59.254482,94.691475 
	C58.175438,94.173615 57.096390,93.655762 56.041534,92.499001 
	C58.318642,89.666000 60.595749,86.832993 63.034763,84.915382 
	C63.086468,95.304268 63.086468,95.304268 65.790398,95.970932 
	C65.790398,90.412613 65.790398,84.908119 65.790398,77.946892 
	C64.257156,79.538567 63.553238,80.269318 62.196030,80.923012 
M18.261438,90.482338 
	C17.923447,90.147568 17.585457,89.812798 16.967878,88.953087 
	C13.856160,79.625885 13.856160,79.625885 10.861945,79.746117 
	C12.531403,84.657082 14.111092,89.529282 15.895823,94.325188 
	C16.182613,95.095848 17.381641,95.971062 18.164610,95.976433 
	C18.823719,95.980957 19.809689,94.906906 20.099979,94.109695 
	C21.410723,90.510010 22.525585,86.838997 23.987396,82.343811 
	C25.520279,87.031990 26.620195,90.716194 27.979490,94.302094 
	C28.276453,95.085503 29.447317,95.874847 30.311901,96.000717 
	C31.021633,96.104034 32.365990,95.395531 32.585453,94.756943 
	C34.317078,89.718224 35.846104,84.609886 37.558678,79.135513 
	C36.193275,79.135513 35.057255,78.950401 34.977272,79.162865 
	C33.394157,83.367950 31.933365,87.619095 30.214205,92.527657 
	C28.983503,88.736992 28.051733,85.417618 26.782104,82.232925 
	C26.405725,81.288834 24.961903,80.024033 24.213703,80.148407 
	C23.076242,80.337486 21.600060,81.407104 21.186335,82.462746 
	C20.116297,85.193008 19.548706,88.120178 18.261438,90.482338 
M206.170868,45.411739 
	C206.487930,45.501881 206.804977,45.592018 207.983673,45.713783 
	C208.909119,46.648254 210.555374,47.526894 210.632858,48.527046 
	C210.937363,52.458172 210.465607,56.453800 210.830063,60.374546 
	C211.128983,63.590538 209.577087,64.335342 206.209656,64.236595 
	C200.753555,64.688522 202.511795,59.259811 200.437637,56.350407 
	C199.777969,54.630665 199.118301,52.910919 198.515259,50.448742 
	C198.059128,49.309464 197.602997,48.170181 197.437790,46.174900 
	C197.533966,45.889294 197.630157,45.603691 198.488312,45.614449 
	C202.788467,45.751789 200.282013,42.729290 200.866196,40.193081 
	C200.292801,39.794857 199.719498,39.051662 199.145996,39.051514 
	C193.092194,39.049942 187.038345,39.166832 180.232605,39.136063 
	C179.894119,41.111599 179.555634,43.087139 179.274368,44.728649 
	C180.910126,45.698536 182.063293,46.382290 182.757202,47.546703 
	C182.419189,49.043171 182.081177,50.539639 181.297638,52.657696 
	C180.941498,54.128326 180.585358,55.598961 179.765869,57.545353 
	C179.431656,59.042179 179.097443,60.539005 178.294418,62.696796 
	C177.202087,63.269321 176.109772,63.841846 174.365997,64.003838 
	C176.575516,57.930847 171.275681,58.035095 168.103699,55.820885 
	C167.722275,56.929798 167.528458,57.533829 167.307892,58.127922 
	C165.809418,62.163979 163.170319,64.686295 158.612335,63.865551 
	C154.330551,63.094547 152.617615,59.874245 152.369186,55.902828 
	C152.103912,51.662003 153.071838,47.389809 157.596313,46.243153 
	C159.996796,45.634789 164.299789,46.489460 165.443497,48.211529 
	C167.901337,51.912292 170.568176,51.505268 173.747528,50.926399 
	C173.747528,46.953705 173.747528,43.171803 173.747528,39.417793 
	C168.342636,39.101196 163.157700,38.445793 157.991302,38.568951 
	C147.625580,38.816055 140.969666,47.028500 142.264450,57.470623 
	C143.431412,66.881958 151.898605,72.959488 161.446426,70.884811 
	C165.399780,70.025772 169.177475,68.358353 173.223877,66.994949 
	C173.874802,67.833626 171.295914,71.986809 176.909851,70.787315 
	C180.265396,70.737221 183.620941,70.687126 187.717758,70.835373 
	C188.484085,70.814377 189.250397,70.793381 190.935257,70.950706 
	C196.289001,70.811066 201.642746,70.671425 207.899017,70.804123 
	C216.934158,70.804123 225.969315,70.804123 234.722946,70.804123 
	C234.722946,65.092148 234.722946,60.024410 234.722946,55.069527 
	C232.262192,55.069527 230.155350,55.069527 227.554901,55.069527 
	C227.554901,58.142429 227.554901,61.026905 227.554901,63.984039 
	C224.935120,63.984039 222.814835,63.984039 220.438568,63.984039 
	C220.438568,57.936474 220.438568,52.045494 220.438568,46.172035 
	C221.950348,45.822388 223.304489,45.509197 224.508667,45.230694 
	C224.508667,43.064453 224.508667,41.266117 224.508667,39.090073 
	C222.928574,39.090073 221.490311,39.090073 219.157288,38.813793 
	C215.424973,38.898361 211.692657,38.982929 207.182388,39.063419 
	C206.923340,40.999153 206.664291,42.934887 206.170868,45.411739 
M121.835243,69.428436 
	C122.341164,69.904991 122.839943,70.786812 123.354118,70.795883 
	C128.978256,70.895142 134.604813,70.858086 140.413712,70.858086 
	C140.413712,68.559425 140.413712,66.625542 140.413712,64.488121 
	C138.976257,64.170753 137.488663,63.842312 136.114380,63.538895 
	C136.114380,57.519287 136.114380,51.883102 136.114380,46.018543 
	C137.651642,45.817982 139.041016,45.636711 140.380188,45.461994 
	C140.380188,43.202728 140.380188,41.273193 140.380188,39.253277 
	C134.112381,39.253277 128.058853,39.253277 121.917664,39.253277 
	C121.917664,41.481915 121.917664,43.427361 121.917664,45.470657 
	C123.443893,45.689529 124.820175,45.886898 126.223473,46.088142 
	C126.223473,52.098629 126.225616,57.735329 126.208344,63.371964 
	C126.207993,63.486931 125.981712,63.601204 125.676132,63.890907 
	C124.614510,64.024727 123.348076,64.184364 121.826027,64.376228 
	C121.826027,65.873894 121.826027,67.176323 121.835243,69.428436 
M173.186111,79.845016 
	C166.725937,82.256660 166.240845,90.453583 170.718918,94.033081 
	C174.550110,97.095482 181.864334,97.843803 185.571365,94.639603 
	C187.580063,92.903374 189.610168,89.619934 189.365616,87.270142 
	C189.095612,84.675644 186.725052,81.194115 184.377945,80.196640 
	C181.330643,78.901611 177.403656,79.676544 173.186111,79.845016 
M208.511658,23.897169 
	C204.386673,23.897169 200.261673,23.897169 196.136688,23.897169 
	C195.983810,24.339319 195.830933,24.781471 195.678055,25.223621 
	C196.635193,25.775581 197.587875,26.798513 198.550171,26.807648 
	C209.881012,26.915201 221.213730,26.911331 232.544449,26.793312 
	C233.497116,26.783388 234.438995,25.738543 235.385880,25.174509 
	C235.225830,24.748793 235.065765,24.323076 234.905716,23.897360 
	C226.439987,23.897360 217.974258,23.897360 208.511658,23.897169 
M22.527626,26.891575 
	C30.320026,26.890642 38.113171,26.944336 45.904140,26.838243 
	C47.301083,26.819220 48.689041,26.140318 50.081146,25.766090 
	C49.974846,25.286234 49.868546,24.806376 49.762245,24.326519 
	C36.892536,24.326519 24.022823,24.326519 11.153113,24.326519 
	C11.060627,24.926249 10.968142,25.525978 10.875656,26.125708 
	C14.164029,27.681461 18.011890,26.505243 22.527626,26.891575 
M165.226181,93.968185 
	C161.021408,93.641472 156.816635,93.314758 152.275833,92.961937 
	C152.275833,89.069885 152.372192,85.284332 152.200150,81.511009 
	C152.162643,80.688370 151.165573,79.909477 150.610428,79.110443 
	C150.148621,79.840172 149.305649,80.560257 149.286896,81.301193 
	C149.165924,86.083359 149.224991,90.870071 149.224991,96.154747 
	C153.010071,96.154747 156.462646,96.311104 159.891388,96.092979 
	C161.787170,95.972374 163.643036,95.224411 165.226181,93.968185 
M151.771500,11.311051 
	C160.289597,7.135713 169.026428,8.760735 177.873810,11.161946 
	C177.635941,9.679710 177.419403,9.007299 176.958023,8.662231 
	C171.308731,4.436996 158.438049,3.674448 152.736267,7.424469 
	C151.830612,8.020109 151.709335,9.808390 151.771500,11.311051 
M132.588409,81.954926 
	C134.813293,81.788300 137.038177,81.621681 139.263062,81.455063 
	C139.224762,80.914734 139.186447,80.374413 139.148148,79.834091 
	C132.707672,79.834091 126.267212,79.834091 119.826744,79.834091 
	C119.763313,80.369987 119.699890,80.905876 119.636459,81.441772 
	C122.348732,81.731804 125.061005,82.021843 127.951126,82.330902 
	C127.951126,85.566322 127.800713,88.539177 128.012344,91.486031 
	C128.124191,93.043259 128.866592,94.555206 129.324310,96.087601 
	C129.863327,94.480820 130.654694,92.909523 130.886658,91.259583 
	C131.314407,88.216805 131.413773,85.127861 132.588409,81.954926 
M126.148987,32.074478 
	C127.426826,32.854565 128.704666,33.634651 130.825226,34.929192 
	C130.825226,28.674963 130.812576,24.054068 130.829437,19.433279 
	C130.841751,16.056690 129.061569,15.730236 126.133774,16.614353 
	C126.133774,21.577753 126.133774,26.364567 126.148987,32.074478 
M205.768707,96.296745 
	C207.848221,94.917603 210.194595,93.787590 211.851028,92.013443 
	C212.374496,91.452782 211.512558,88.464821 210.493774,87.800430 
	C206.705688,85.330032 202.455322,85.529778 198.184509,86.898468 
	C200.542862,88.047676 203.050262,88.241158 205.455811,88.842216 
	C206.720978,89.158325 207.808044,90.187157 208.975540,90.894157 
	C207.819977,91.885902 206.699753,93.659981 205.501816,93.714127 
	C202.588333,93.845818 199.638763,93.178719 196.703690,92.833748 
	C195.525009,92.695213 194.346191,92.557686 193.167435,92.419693 
	C193.056061,93.186859 192.944702,93.954025 192.833344,94.721191 
	C196.876175,95.275940 200.919006,95.830681 205.768707,96.296745 
M193.161896,84.377464 
	C194.566864,85.601791 195.971832,86.826118 197.376801,88.050453 
	C197.731720,87.638870 198.086639,87.227295 198.441574,86.815720 
	C197.771408,85.539101 197.101257,84.262489 195.580872,81.366249 
	C201.507523,81.707985 206.179291,81.977356 212.190292,82.323952 
	C203.620575,76.982819 196.306198,77.875298 193.161896,84.377464 
z"/>
<path fill="#323033" opacity="1.000000" stroke="none" 
	d="
M103.900108,70.779068 
	C97.481781,70.783875 91.063446,70.788681 84.186989,70.433960 
	C83.398888,70.236557 83.068909,70.398682 82.738937,70.560806 
	C74.946320,70.657166 67.150856,70.655777 59.362072,70.883392 
	C53.940331,71.041817 48.531704,71.659729 43.110023,71.806435 
	C37.597157,71.955605 36.480728,69.609917 39.646629,64.677559 
	C39.307690,70.122620 42.608746,70.482483 45.925995,69.825951 
	C49.198814,69.178207 55.226204,71.962662 54.417343,64.259918 
	C56.617870,64.029320 58.375813,63.946480 60.388805,63.851624 
	C60.388805,58.550953 60.273266,53.599316 60.436539,48.656895 
	C60.520798,46.106293 59.473858,45.412975 57.135677,45.419144 
	C57.043247,42.993015 57.020000,40.989616 56.996758,38.986214 
	C65.996147,38.990192 74.995537,38.994171 84.394211,39.473145 
	C84.899513,41.992569 85.005524,44.036999 85.067093,46.516403 
	C84.342064,53.544010 80.012917,49.143204 77.427490,49.103065 
	C76.957184,42.520412 72.613083,47.241478 70.163239,45.540627 
	C70.163239,47.721378 70.163239,49.246662 70.163239,50.974739 
	C72.269905,50.974739 74.060036,51.019676 75.844772,50.941521 
	C76.264175,50.923157 76.665367,50.489090 77.288635,50.604774 
	C77.502350,53.222027 77.502350,55.480774 77.502350,57.687641 
	C74.618759,57.843281 72.351074,57.965675 70.136246,58.085217 
	C69.688339,64.392242 69.688339,64.392242 76.773979,63.882118 
	C76.988647,62.422626 77.209503,60.921047 77.391884,59.681053 
	C79.974533,59.681053 82.186165,59.681053 84.020988,59.681053 
	C85.029282,61.283661 86.014687,62.849876 87.005554,64.813416 
	C86.598053,68.859177 88.280563,70.109215 91.856438,70.063347 
	C95.867271,70.011894 99.885246,70.516441 103.900108,70.779068 
M58.253204,66.201340 
	C58.429352,66.142487 58.605495,66.083641 58.781639,66.024788 
	C58.605022,65.968094 58.428406,65.911407 58.253204,66.201340 
M63.384624,69.451561 
	C63.384624,69.451561 63.522339,69.371277 63.384624,69.451561 
z"/>
<path fill="#343234" opacity="1.000000" stroke="none" 
	d="
M176.013687,70.594109 
	C171.295914,71.986809 173.874802,67.833626 173.223877,66.994949 
	C169.177475,68.358353 165.399780,70.025772 161.446426,70.884811 
	C151.898605,72.959488 143.431412,66.881958 142.264450,57.470623 
	C140.969666,47.028500 147.625580,38.816055 157.991302,38.568951 
	C163.157700,38.445793 168.342636,39.101196 173.747528,39.417793 
	C173.747528,43.171803 173.747528,46.953705 173.747528,50.926399 
	C170.568176,51.505268 167.901337,51.912292 165.443497,48.211529 
	C164.299789,46.489460 159.996796,45.634789 157.596313,46.243153 
	C153.071838,47.389809 152.103912,51.662003 152.369186,55.902828 
	C152.617615,59.874245 154.330551,63.094547 158.612335,63.865551 
	C163.170319,64.686295 165.809418,62.163979 167.307892,58.127922 
	C167.528458,57.533829 167.722275,56.929798 168.103699,55.820885 
	C171.275681,58.035095 176.575516,57.930847 174.694275,64.566772 
	C175.352936,66.951180 175.683304,68.772644 176.013687,70.594109 
z"/>
<path fill="#2F2E30" opacity="1.000000" stroke="none" 
	d="
M104.316902,70.793755 
	C99.885246,70.516441 95.867271,70.011894 91.856438,70.063347 
	C88.280563,70.109215 86.598053,68.859177 87.414444,64.696579 
	C88.792145,63.215569 90.525940,62.308167 90.607101,61.271400 
	C90.931099,57.132450 90.570541,52.943890 90.798660,48.792114 
	C90.961983,45.819660 89.499962,45.434231 87.040817,45.370182 
	C86.936928,42.973652 86.965897,40.984444 86.994858,38.995235 
	C92.148018,39.007114 97.301750,38.973644 102.454216,39.039551 
	C116.734222,39.222206 123.428886,48.968906 117.968262,62.789528 
	C115.229881,65.171593 113.128120,67.268272 111.026360,69.364944 
	C111.026360,69.364944 110.738686,69.709282 110.394897,69.406586 
	C109.358620,69.488411 108.666122,69.872932 107.973633,70.257454 
	C106.893654,70.441109 105.813675,70.624771 104.316902,70.793755 
M110.324471,53.701046 
	C108.986931,46.875683 106.712601,45.194271 100.428391,46.313316 
	C100.428391,52.205177 100.428391,58.077801 100.428391,63.928734 
	C108.011826,64.082863 109.807678,62.330521 110.324471,53.701046 
z"/>
<path fill="#AD2E4C" opacity="1.000000" stroke="none" 
	d="
M140.016876,76.113518 
	C133.314743,76.062820 126.612625,76.012123 118.987694,75.947533 
	C112.382935,75.994843 106.700974,76.056053 101.019020,76.117256 
	C100.256996,76.066063 99.494972,76.014877 97.912201,75.949142 
	C94.067162,75.994812 91.042870,76.055023 88.018578,76.115242 
	C85.303886,76.067429 82.589188,76.019615 78.974342,75.956192 
	C74.055504,76.002045 70.036812,76.063492 66.018127,76.124939 
	C55.315716,76.070038 44.613308,76.015137 33.011547,75.947655 
	C29.747965,75.998840 27.383730,76.062614 25.019497,76.126381 
	C21.325298,76.048607 17.631098,75.970825 13.332494,75.597321 
	C12.503020,74.593063 12.277952,73.884552 12.052885,73.176033 
	C85.197357,73.144424 158.341827,73.107994 231.486282,73.124664 
	C232.647369,73.124931 233.808273,73.776924 234.748596,74.643738 
	C234.261322,75.304268 234.066330,75.512794 233.942947,75.788284 
	C233.942947,75.788284 233.931946,75.957390 233.560272,75.949600 
	C231.798401,76.004158 230.408203,76.066505 229.018021,76.128845 
	C226.633011,76.078247 224.248001,76.027641 220.965485,75.961044 
	C215.385010,76.007462 210.702042,76.069878 206.019089,76.132294 
	C204.939026,76.082535 203.858948,76.032776 201.973358,75.968719 
	C199.784515,76.013123 198.401215,76.071800 197.017914,76.130486 
	C196.256622,76.075859 195.495331,76.021240 193.912872,75.953796 
	C190.067551,76.004204 187.043411,76.067436 184.019257,76.130661 
	C180.575363,76.077110 177.131454,76.023560 172.875000,75.954498 
	C165.047607,75.998032 158.032791,76.057076 151.017960,76.116127 
	C149.939148,76.064026 148.860352,76.011925 146.954102,75.945282 
	C144.090057,75.991669 142.053467,76.052589 140.016876,76.113518 
z"/>
<path fill="#282628" opacity="1.000000" stroke="none" 
	d="
M176.461761,70.690712 
	C175.683304,68.772644 175.352936,66.951180 175.019989,64.772041 
	C176.109772,63.841846 177.202087,63.269321 178.793655,62.244450 
	C179.604996,60.217934 179.917114,58.643761 180.229218,57.069595 
	C180.585358,55.598961 180.941498,54.128326 181.787720,52.227913 
	C182.590683,50.220768 182.903580,48.643406 183.216476,47.066040 
	C182.063293,46.382290 180.910126,45.698536 179.274368,44.728649 
	C179.555634,43.087139 179.894119,41.111599 180.716614,39.574818 
	C187.673157,40.351196 194.145676,40.688820 200.618210,41.026440 
	C200.282013,42.729290 202.788467,45.751789 197.908936,45.361225 
	C196.967422,45.305527 196.605286,45.503056 196.243149,45.700584 
	C196.544388,46.144028 196.845627,46.587463 197.146866,47.030899 
	C197.602997,48.170181 198.059128,49.309464 198.367676,51.199944 
	C198.926544,53.645779 199.632996,55.340416 200.339447,57.035049 
	C202.511795,59.259811 200.753555,64.688522 206.606506,64.344299 
	C207.003372,64.452003 207.011002,64.473404 206.671356,64.730698 
	C206.558731,66.835304 206.785767,68.682602 207.011353,70.540634 
	C207.009918,70.551369 206.996490,70.531784 206.996490,70.531784 
	C201.642746,70.671425 196.289001,70.811066 190.480850,70.450241 
	C190.033081,68.577690 190.039719,67.205605 190.286530,65.541840 
	C191.623810,64.748444 192.720917,64.246704 193.926697,63.695278 
	C193.293945,58.018314 188.954681,61.207130 186.403198,60.223129 
	C185.227966,63.632420 185.227966,63.632420 187.974945,64.847595 
	C187.633438,67.013695 187.304962,68.825363 186.976486,70.637024 
	C183.620941,70.687126 180.265396,70.737221 176.461761,70.690712 
z"/>
<path fill="#2A282A" opacity="1.000000" stroke="none" 
	d="
M207.010986,64.473404 
	C207.011002,64.473404 207.003372,64.452003 206.999329,64.469017 
	C209.577087,64.335342 211.128983,63.590538 210.830063,60.374546 
	C210.465607,56.453800 210.937363,52.458172 210.632858,48.527046 
	C210.555374,47.526894 208.909119,46.648254 207.530304,45.492100 
	C206.947586,44.978268 206.723679,44.845001 206.405243,44.870617 
	C206.664291,42.934887 206.923340,40.999153 207.709656,39.428040 
	C212.259460,40.973713 216.287811,42.252476 220.052063,39.090073 
	C221.490311,39.090073 222.928574,39.090073 224.508667,39.090073 
	C224.508667,41.266117 224.508667,43.064453 224.508667,45.230694 
	C223.304489,45.509197 221.950348,45.822388 220.438568,46.172035 
	C220.438568,52.045494 220.438568,57.936474 220.438568,63.984039 
	C222.814835,63.984039 224.935120,63.984039 227.554901,63.984039 
	C227.554901,61.026905 227.554901,58.142429 227.554901,55.069527 
	C230.155350,55.069527 232.262192,55.069527 234.722946,55.069527 
	C234.722946,60.024410 234.722946,65.092148 234.722946,70.804123 
	C225.969315,70.804123 216.934158,70.804123 207.447754,70.667953 
	C206.996490,70.531784 207.009918,70.551369 207.030670,70.034973 
	C207.037964,67.836861 207.024475,66.155128 207.010986,64.473404 
z"/>
<path fill="#333133" opacity="1.000000" stroke="none" 
	d="
M121.830635,68.953598 
	C121.826027,67.176323 121.826027,65.873894 121.826027,64.376228 
	C123.348076,64.184364 124.614510,64.024727 125.676132,63.890907 
	C125.981712,63.601204 126.207993,63.486931 126.208344,63.371964 
	C126.225616,57.735329 126.223473,52.098629 126.223473,46.088142 
	C124.820175,45.886898 123.443893,45.689529 121.917664,45.470657 
	C121.917664,43.427361 121.917664,41.481915 121.917664,39.253277 
	C128.058853,39.253277 134.112381,39.253277 140.380188,39.253277 
	C140.380188,41.273193 140.380188,43.202728 140.380188,45.461994 
	C139.041016,45.636711 137.651642,45.817982 136.114380,46.018543 
	C136.114380,51.883102 136.114380,57.519287 136.114380,63.538895 
	C137.488663,63.842312 138.976257,64.170753 140.413712,64.488121 
	C140.413712,66.625542 140.413712,68.559425 140.413712,70.858086 
	C134.604813,70.858086 128.978256,70.895142 123.354118,70.795883 
	C122.839943,70.786812 122.341164,69.904991 121.830635,68.953598 
z"/>
<path fill="#323033" opacity="1.000000" stroke="none" 
	d="
M24.079628,65.001305 
	C23.984272,66.800346 23.888916,68.599396 23.791813,70.431366 
	C21.269442,70.919487 18.912674,71.588699 16.515558,71.799828 
	C9.063982,72.456161 8.937049,72.273628 9.179735,64.521446 
	C10.515310,64.298439 11.915272,64.064682 13.784911,63.752502 
	C13.784911,60.209148 14.022970,56.561073 13.710203,52.960850 
	C13.456254,50.037666 16.030153,45.533195 10.013964,45.315994 
	C10.013964,43.312843 10.013964,41.494759 10.013964,39.022648 
	C15.064929,39.022648 20.149109,38.872147 25.207117,39.168438 
	C26.066088,39.218754 26.812685,41.187344 27.253531,42.604607 
	C23.130627,42.270184 19.365389,41.600842 15.600153,40.931503 
	C15.374940,41.512375 15.149727,42.093246 14.924513,42.674114 
	C19.443594,43.814358 22.558935,46.016846 21.650417,50.923397 
	C20.614342,50.963135 19.323011,51.130424 19.327877,51.187778 
	C19.685226,55.401070 20.145281,59.605648 20.590567,63.750118 
	C21.715200,64.153419 22.897415,64.577362 24.079628,65.001305 
z"/>
<path fill="#1B191C" opacity="1.000000" stroke="none" 
	d="
M22.000145,50.999634 
	C22.558935,46.016846 19.443594,43.814358 14.924513,42.674114 
	C15.149727,42.093246 15.374940,41.512375 15.600153,40.931503 
	C19.365389,41.600842 23.130627,42.270184 27.216537,42.991257 
	C27.824488,43.596001 28.111765,44.149014 28.274967,45.398605 
	C28.959290,47.746185 29.767689,49.397186 30.576088,51.048191 
	C30.694540,51.468006 30.812994,51.887825 30.955315,53.001228 
	C31.609283,54.691360 32.239384,55.687904 32.869484,56.684452 
	C32.974689,55.810589 33.079895,54.936726 33.185101,54.062862 
	C33.316708,53.112797 33.448311,52.162727 34.292458,51.060287 
	C35.564960,49.061047 36.124916,47.214184 36.684872,45.367317 
	C36.818283,44.760052 36.951698,44.152786 37.602734,43.205826 
	C39.485397,42.218380 40.850437,41.570633 43.204735,40.453453 
	C41.867367,45.233318 40.925972,48.597923 39.984581,51.962532 
	C39.843746,52.542187 39.702904,53.121841 38.966934,53.900459 
	C37.382286,54.762589 36.392773,55.425758 35.403255,56.088928 
	C36.180721,56.735519 36.958187,57.382111 37.735653,58.028706 
	C37.645115,58.578728 37.554577,59.128754 36.840549,59.842644 
	C34.991951,60.337265 33.747112,60.609051 32.545834,61.011005 
	C30.014734,61.857918 27.559711,62.407742 25.321245,59.655914 
	C24.077785,56.557083 23.038965,53.778358 22.000145,50.999634 
z"/>
<path fill="#323033" opacity="1.000000" stroke="none" 
	d="
M40.438686,51.884155 
	C40.925972,48.597923 41.867367,45.233318 43.204735,40.453453 
	C40.850437,41.570633 39.485397,42.218380 37.802814,42.960632 
	C37.359699,39.601746 39.173443,38.739052 42.360046,38.941761 
	C46.249557,39.189175 50.168095,38.980209 54.624775,39.388214 
	C55.061707,41.831032 54.947948,43.854252 54.379356,45.829544 
	C53.168224,46.562195 51.771824,47.332153 51.758678,48.125046 
	C51.667969,53.597321 51.865803,59.074375 51.731186,64.700592 
	C48.410995,64.747925 45.330524,64.644562 42.250050,64.541191 
	C41.797630,60.296055 41.345211,56.050919 40.438686,51.884155 
M46.903549,56.809822 
	C49.548798,57.376461 50.042236,55.864281 50.017223,53.695606 
	C49.970200,49.618748 50.003662,45.540962 50.003662,39.833973 
	C48.509739,41.784126 47.405064,42.670097 47.058205,43.790638 
	C46.248432,46.406689 45.586449,49.112286 45.295582,51.827778 
	C45.136147,53.316231 45.851994,54.898434 46.903549,56.809822 
z"/>
<path fill="#B0334F" opacity="1.000000" stroke="none" 
	d="
M79.069954,31.126041 
	C77.083687,26.488636 76.749222,22.145720 81.195160,18.582321 
	C85.350731,15.251654 93.135910,14.299397 97.171043,17.205307 
	C98.499489,18.161983 98.782883,20.569813 99.992889,23.342293 
	C89.832001,18.133078 85.824440,18.826063 81.581032,25.627586 
	C85.601814,33.399990 92.141586,33.620949 97.997444,28.871082 
	C98.532433,32.570477 96.345406,34.661907 91.150085,35.200386 
	C86.674454,35.664272 82.965813,33.886906 79.373230,31.012047 
	C79.017525,31.087189 79.069954,31.126041 79.069954,31.126041 
z"/>
<path fill="#181918" opacity="1.000000" stroke="none" 
	d="
M18.780479,90.968727 
	C19.548706,88.120178 20.116297,85.193008 21.186335,82.462746 
	C21.600060,81.407104 23.076242,80.337486 24.213703,80.148407 
	C24.961903,80.024033 26.405725,81.288834 26.782104,82.232925 
	C28.051733,85.417618 28.983503,88.736992 30.214205,92.527657 
	C31.933365,87.619095 33.394157,83.367950 34.977272,79.162865 
	C35.057255,78.950401 36.193275,79.135513 37.558678,79.135513 
	C35.846104,84.609886 34.317078,89.718224 32.585453,94.756943 
	C32.365990,95.395531 31.021633,96.104034 30.311901,96.000717 
	C29.447317,95.874847 28.276453,95.085503 27.979490,94.302094 
	C26.620195,90.716194 25.520279,87.031990 23.987396,82.343811 
	C22.525585,86.838997 21.410723,90.510010 20.099979,94.109695 
	C19.809689,94.906906 18.823719,95.980957 18.164610,95.976433 
	C17.381641,95.971062 16.182613,95.095848 15.895823,94.325188 
	C14.111092,89.529282 12.531403,84.657082 10.861945,79.746117 
	C13.856160,79.625885 13.856160,79.625885 17.057255,89.500565 
	C17.455835,90.633461 17.765038,91.218887 18.074240,91.804314 
	C18.309652,91.525780 18.545067,91.247253 18.780479,90.968727 
z"/>
<path fill="#1C1D1C" opacity="1.000000" stroke="none" 
	d="
M173.520721,79.702751 
	C177.403656,79.676544 181.330643,78.901611 184.377945,80.196640 
	C186.725052,81.194115 189.095612,84.675644 189.365616,87.270142 
	C189.610168,89.619934 187.580063,92.903374 185.571365,94.639603 
	C181.864334,97.843803 174.550110,97.095482 170.718918,94.033081 
	C166.240845,90.453583 166.725937,82.256660 173.520721,79.702751 
M170.872498,88.350510 
	C173.070984,93.929436 179.520370,95.945076 184.126999,92.492958 
	C187.420929,90.024574 187.582260,85.712677 184.478119,83.108734 
	C179.642136,79.052017 172.659119,81.323906 170.872498,88.350510 
z"/>
<path fill="#191B19" opacity="1.000000" stroke="none" 
	d="
M56.017345,93.137909 
	C57.096390,93.655762 58.175438,94.173615 59.254482,94.691475 
	C59.127968,95.068436 59.001457,95.445404 58.874947,95.822372 
	C53.140091,95.822372 47.405231,95.822372 40.956287,95.822372 
	C40.956287,90.602409 40.956287,85.234673 40.956287,79.362663 
	C46.656559,79.362663 52.212894,79.362663 57.978188,80.109146 
	C53.482880,81.370316 48.778614,81.884995 44.045399,82.402840 
	C43.593575,84.733788 43.520905,86.783211 47.329960,85.977051 
	C48.106133,86.007072 48.552738,85.952049 49.406319,85.983543 
	C51.223293,86.224083 52.633293,86.378120 54.043293,86.532150 
	C54.050838,87.096886 54.058380,87.661621 54.065922,88.226349 
	C51.710556,88.483192 49.355190,88.740028 46.562946,88.884903 
	C45.215355,90.022408 44.304638,91.271873 42.618511,93.585175 
	C45.676792,93.327484 46.814396,93.231636 48.321342,93.271957 
	C51.132908,93.318062 53.575127,93.227989 56.017345,93.137909 
z"/>
<path fill="#AA3B53" opacity="1.000000" stroke="none" 
	d="
M79.001755,31.058628 
	C79.308632,32.224861 79.631294,33.419659 79.956474,34.623775 
	C76.703568,35.677979 74.663452,34.488701 72.890175,31.434713 
	C70.691635,27.648333 62.211594,28.170038 59.323959,31.604231 
	C57.811459,33.403019 55.414196,34.457863 53.416504,35.848686 
	C53.010296,35.379360 52.604092,34.910038 52.197884,34.440716 
	C53.797031,31.993183 55.396175,29.545650 57.407948,27.086414 
	C57.912357,27.171669 58.004147,27.268625 58.095932,27.365582 
	C57.972935,27.100307 57.849937,26.835035 57.726944,26.569763 
	C57.901669,26.064028 58.076393,25.558296 58.567284,24.970604 
	C58.883450,24.888647 59.068150,25.039558 59.268494,25.303745 
	C61.033012,25.949110 62.597183,26.330288 64.404633,26.770750 
	C64.222725,24.309639 64.101135,22.664589 63.989571,21.009972 
	C63.999596,21.000402 64.019714,20.981333 64.374893,21.030663 
	C66.240395,22.390453 67.750717,23.700914 70.040253,25.687477 
	C70.155914,25.527876 71.065666,24.272537 72.103439,22.910831 
	C72.231468,22.804468 72.487198,22.591360 72.487198,22.591362 
	C74.441940,25.414242 76.396683,28.237122 78.710693,31.093021 
	C79.069954,31.126041 79.017525,31.087189 79.001755,31.058628 
z"/>
<path fill="#FBFCFB" opacity="1.000000" stroke="none" 
	d="
M47.000397,85.892006 
	C43.520905,86.783211 43.593575,84.733788 44.045399,82.402840 
	C48.778614,81.884995 53.482880,81.370316 58.297153,80.424683 
	C59.670116,80.303482 60.933075,80.613243 62.612801,81.330612 
	C62.977333,82.492142 62.925095,83.246063 62.872856,83.999992 
	C60.595749,86.832993 58.318642,89.666000 56.029442,92.818459 
	C53.575127,93.227989 51.132908,93.318062 48.305801,92.914963 
	C47.613880,91.280144 47.306854,90.138504 46.999825,88.996872 
	C49.355190,88.740028 51.710556,88.483192 54.065922,88.226349 
	C54.058380,87.661621 54.050838,87.096886 54.043293,86.532150 
	C52.633293,86.378120 51.223293,86.224083 49.363747,85.697800 
	C48.595562,85.023018 48.276924,84.720482 47.958286,84.417938 
	C47.638988,84.909294 47.319695,85.400650 47.000397,85.892006 
z"/>
<path fill="#141413" opacity="1.000000" stroke="none" 
	d="
M69.600250,87.557449 
	C73.371468,78.130753 82.730064,75.810532 90.364983,83.517395 
	C88.935608,83.093163 87.447754,82.804573 86.088150,82.218491 
	C82.443031,80.647217 78.911339,80.663437 75.845894,83.272255 
	C73.209656,85.515785 73.075218,88.358360 75.047028,91.888245 
	C75.412560,92.560913 75.696091,92.610413 75.979622,92.659904 
	C79.379387,92.729912 82.779144,92.799919 86.865326,92.919968 
	C87.770737,93.315964 87.989716,93.661926 88.208702,94.007881 
	C81.672928,99.545540 74.490868,97.304924 69.749023,87.981445 
	C69.528511,87.645172 69.600250,87.557449 69.600250,87.557449 
z"/>
<path fill="#A42B4C" opacity="1.000000" stroke="none" 
	d="
M209.010101,23.897264 
	C217.974258,23.897360 226.439987,23.897360 234.905716,23.897360 
	C235.065765,24.323076 235.225830,24.748793 235.385880,25.174509 
	C234.438995,25.738543 233.497116,26.783388 232.544449,26.793312 
	C221.213730,26.911331 209.881012,26.915201 198.550171,26.807648 
	C197.587875,26.798513 196.635193,25.775581 195.678055,25.223621 
	C195.830933,24.781471 195.983810,24.339319 196.136688,23.897169 
	C200.261673,23.897169 204.386673,23.897169 209.010101,23.897264 
z"/>
<path fill="#A52E4E" opacity="1.000000" stroke="none" 
	d="
M22.033730,26.891380 
	C18.011890,26.505243 14.164029,27.681461 10.875656,26.125708 
	C10.968142,25.525978 11.060627,24.926249 11.153113,24.326519 
	C24.022823,24.326519 36.892536,24.326519 49.762245,24.326519 
	C49.868546,24.806376 49.974846,25.286234 50.081146,25.766090 
	C48.689041,26.140318 47.301083,26.819220 45.904140,26.838243 
	C38.113171,26.944336 30.320026,26.890642 22.033730,26.891380 
z"/>
<path fill="#181918" opacity="1.000000" stroke="none" 
	d="
M218.331924,82.999458 
	C220.672607,87.805473 225.772537,84.800964 229.081070,86.803833 
	C230.855194,87.877838 232.503830,89.159187 234.209091,90.346970 
	C232.850815,92.190933 231.848587,95.073814 230.067551,95.684204 
	C224.709106,97.520615 219.311768,96.550262 214.338547,92.636391 
	C215.706802,92.636391 217.087982,92.515732 218.440674,92.660797 
	C221.528412,92.991928 224.608383,93.761292 227.678406,93.699646 
	C228.800308,93.677132 229.885101,91.806328 230.986816,90.778702 
	C229.780640,90.200668 228.628082,89.356964 227.357010,89.100441 
	C224.790863,88.582565 222.139603,88.496681 219.561798,88.023636 
	C216.584717,87.477310 214.758316,85.917007 216.080841,82.370972 
	C217.133926,82.477173 217.732925,82.738319 218.331924,82.999458 
z"/>
<path fill="#C02144" opacity="1.000000" stroke="none" 
	d="
M172.991959,21.130959 
	C171.010635,24.196859 169.029297,27.262758 166.625153,30.736118 
	C165.943817,31.855824 165.685272,32.568069 165.426743,33.280315 
	C165.426743,33.280315 165.364746,33.324509 164.943176,33.260445 
	C163.671722,33.132664 162.821838,33.068954 161.971939,33.005245 
	C161.971939,33.005245 162.005768,33.001400 161.996368,32.703152 
	C161.584656,31.981171 161.182312,31.557438 160.779984,31.133705 
	C160.779984,31.133705 160.931686,31.055990 160.892975,30.772947 
	C160.398651,30.066341 159.943039,29.642778 159.487427,29.219215 
	C159.251556,29.068304 159.089157,28.860094 158.963165,28.068096 
	C158.505035,27.114244 158.083923,26.686882 157.662827,26.259521 
	C157.662827,26.259521 158.004791,26.026766 157.897659,25.815266 
	C157.363205,25.255945 156.935883,24.908125 156.508560,24.560307 
	C156.508560,24.560305 156.507217,24.459740 156.536102,24.095554 
	C155.912048,22.940607 155.259140,22.149849 154.606216,21.359089 
	C154.606216,21.359089 154.673096,21.259169 154.729797,20.891228 
	C155.555435,19.657854 156.324341,18.792421 157.093262,17.926991 
	C157.093262,17.926991 156.997986,17.984127 157.006058,18.303692 
	C157.693481,19.408039 158.372849,20.192823 159.052200,20.977608 
	C159.052200,20.977610 158.996872,20.993572 159.017670,21.289070 
	C159.445953,22.020002 159.853439,22.455441 160.260925,22.890881 
	C162.937042,27.155663 165.364594,23.932032 168.204193,22.164417 
	C168.790939,21.418970 168.859756,21.109959 168.758606,20.763031 
	C168.758606,20.763031 168.931915,20.933266 169.102509,20.791931 
	C169.335724,20.311577 169.398315,19.972557 169.460922,19.633539 
	C169.460922,19.633539 169.545883,19.620005 169.866089,19.580736 
	C170.368683,18.951786 170.551071,18.362106 170.733475,17.772427 
	C170.733475,17.772427 170.949158,17.778015 171.219391,17.866911 
	C171.990402,19.014191 172.491180,20.072573 172.991959,21.130959 
z"/>
<path fill="#2E2F2E" opacity="1.000000" stroke="none" 
	d="
M165.371536,94.363708 
	C163.643036,95.224411 161.787170,95.972374 159.891388,96.092979 
	C156.462646,96.311104 153.010071,96.154747 149.224991,96.154747 
	C149.224991,90.870071 149.165924,86.083359 149.286896,81.301193 
	C149.305649,80.560257 150.148621,79.840172 150.610428,79.110443 
	C151.165573,79.909477 152.162643,80.688370 152.200150,81.511009 
	C152.372192,85.284332 152.275833,89.069885 152.275833,92.961937 
	C156.816635,93.314758 161.021408,93.641472 165.371536,94.363708 
z"/>
<path fill="#C1C0C0" opacity="1.000000" stroke="none" 
	d="
M151.498459,11.178165 
	C151.709335,9.808390 151.830612,8.020109 152.736267,7.424469 
	C158.438049,3.674448 171.308731,4.436996 176.958023,8.662231 
	C177.419403,9.007299 177.635941,9.679710 177.873810,11.161946 
	C169.026428,8.760735 160.289597,7.135713 151.498459,11.178165 
z"/>
<path fill="#343534" opacity="1.000000" stroke="none" 
	d="
M132.119202,82.006546 
	C131.413773,85.127861 131.314407,88.216805 130.886658,91.259583 
	C130.654694,92.909523 129.863327,94.480820 129.324310,96.087601 
	C128.866592,94.555206 128.124191,93.043259 128.012344,91.486031 
	C127.800713,88.539177 127.951126,85.566322 127.951126,82.330902 
	C125.061005,82.021843 122.348732,81.731804 119.636459,81.441772 
	C119.699890,80.905876 119.763313,80.369987 119.826744,79.834091 
	C126.267212,79.834091 132.707672,79.834091 139.148148,79.834091 
	C139.186447,80.374413 139.224762,80.914734 139.263062,81.455063 
	C137.038177,81.621681 134.813293,81.788300 132.119202,82.006546 
z"/>
<path fill="#AB425B" opacity="1.000000" stroke="none" 
	d="
M126.141380,31.612928 
	C126.133774,26.364567 126.133774,21.577753 126.133774,16.614353 
	C129.061569,15.730236 130.841751,16.056690 130.829437,19.433279 
	C130.812576,24.054068 130.825226,28.674963 130.825226,34.929192 
	C128.704666,33.634651 127.426826,32.854565 126.141380,31.612928 
z"/>
<path fill="#161616" opacity="1.000000" stroke="none" 
	d="
M205.365265,96.341087 
	C200.919006,95.830681 196.876175,95.275940 192.833344,94.721191 
	C192.944702,93.954025 193.056061,93.186859 193.167435,92.419693 
	C194.346191,92.557686 195.525009,92.695213 196.703690,92.833748 
	C199.638763,93.178719 202.588333,93.845818 205.501816,93.714127 
	C206.699753,93.659981 207.819977,91.885902 208.975540,90.894157 
	C207.808044,90.187157 206.720978,89.158325 205.455811,88.842216 
	C203.050262,88.241158 200.542862,88.047676 198.184509,86.898468 
	C202.455322,85.529778 206.705688,85.330032 210.493774,87.800430 
	C211.512558,88.464821 212.374496,91.452782 211.851028,92.013443 
	C210.194595,93.787590 207.848221,94.917603 205.365265,96.341087 
z"/>
<path fill="#C02545" opacity="1.000000" stroke="none" 
	d="
M181.070129,22.835085 
	C181.221039,22.911713 181.371948,22.988338 181.860672,23.514473 
	C184.130737,24.497742 186.062973,25.031506 187.941254,25.550362 
	C185.669586,25.985664 183.340775,26.431919 180.819199,27.044943 
	C180.565933,27.522434 180.505432,27.833158 180.444916,28.143883 
	C180.384384,28.527466 180.323853,28.911049 180.289276,29.835915 
	C180.548019,30.633818 180.780777,30.890434 181.322205,31.407190 
	C184.661453,31.877110 187.692032,32.086891 190.722610,32.296669 
	C190.707794,32.583359 190.692978,32.870049 190.678162,33.156738 
	C186.412689,33.156738 182.147217,33.156738 177.618317,32.822258 
	C177.231216,28.708311 176.937866,24.921865 177.092926,21.153870 
	C177.136383,20.098064 178.435059,18.276012 179.269180,18.209949 
	C183.220657,17.896975 187.210632,18.070196 191.186890,18.070196 
	C191.189926,18.167198 191.192947,18.264200 191.195984,18.361202 
	C187.567032,19.015972 183.938065,19.670742 180.234329,20.629087 
	C180.463074,21.566803 180.766602,22.200943 181.070129,22.835085 
z"/>
<path fill="#A04F62" opacity="1.000000" stroke="none" 
	d="
M180.309113,20.325512 
	C183.938065,19.670742 187.567032,19.015972 191.195984,18.361202 
	C191.192947,18.264200 191.189926,18.167198 191.186890,18.070196 
	C187.210632,18.070196 183.220657,17.896975 179.269180,18.209949 
	C178.435059,18.276012 177.136383,20.098064 177.092926,21.153870 
	C176.937866,24.921865 177.231216,28.708311 177.643921,33.203331 
	C177.946884,34.174202 177.960800,34.429520 177.974731,34.684834 
	C177.277283,33.448933 176.067978,32.248867 175.978485,30.970415 
	C175.711090,27.150295 175.882385,23.299465 175.882385,18.427893 
	C174.667709,19.831102 174.186890,20.386541 173.349030,21.036469 
	C172.491180,20.072573 171.990402,19.014191 171.113678,17.845192 
	C171.777222,17.214954 172.803680,16.278362 173.858368,16.245384 
	C179.460190,16.070234 185.071381,16.208113 190.674683,16.060968 
	C193.811371,15.978599 194.927505,17.118107 192.959213,20.212502 
	C188.166901,20.297161 184.238007,20.311338 180.309113,20.325512 
z"/>
<path fill="#1B191C" opacity="1.000000" stroke="none" 
	d="
M41.895218,64.405731 
	C45.330524,64.644562 48.410995,64.747925 52.050880,64.568771 
	C53.065109,64.326729 53.519936,64.367203 53.974758,64.407669 
	C55.226204,71.962662 49.198814,69.178207 45.925995,69.825951 
	C42.608746,70.482483 39.307690,70.122620 40.046555,64.779549 
	C40.538830,64.344940 41.039608,64.307610 41.895218,64.405731 
z"/>
<path fill="#2E2F2E" opacity="1.000000" stroke="none" 
	d="
M111.002884,86.197075 
	C111.956306,84.132545 112.909721,82.068016 114.231285,79.206291 
	C114.641785,79.447281 116.379112,79.854645 116.683495,80.749451 
	C118.188034,85.172447 116.508347,95.206795 114.872864,95.862885 
	C113.866737,93.491058 112.863503,91.126045 111.436508,88.362267 
	C111.009460,87.374687 111.006172,86.785881 111.002884,86.197075 
z"/>
<path fill="#323033" opacity="1.000000" stroke="none" 
	d="
M25.525885,59.976025 
	C27.559711,62.407742 30.014734,61.857918 32.545834,61.011005 
	C33.747112,60.609051 34.991951,60.337265 36.598484,59.999184 
	C36.341763,61.788185 35.703609,63.584507 34.534634,65.696648 
	C32.296829,65.722916 30.589851,65.433372 28.401485,65.062164 
	C29.434401,67.215981 30.235949,68.887344 31.037495,70.558708 
	C30.131420,70.580338 28.557665,70.887848 28.425119,70.578285 
	C27.384319,68.147446 26.619427,65.598465 25.533951,62.556419 
	C25.374228,61.343300 25.450056,60.659664 25.525885,59.976025 
z"/>
<path fill="#A85669" opacity="1.000000" stroke="none" 
	d="
M156.930130,17.557194 
	C156.324341,18.792421 155.555435,19.657854 154.671646,20.906450 
	C153.888580,20.823229 153.220367,20.356842 151.939301,19.602577 
	C147.240891,19.227661 143.155350,19.140625 138.843781,18.773373 
	C137.432709,18.340076 136.247635,18.186998 134.901306,17.788429 
	C134.199997,17.363932 133.659943,17.184923 133.119888,17.005913 
	C141.002258,17.066408 148.884628,17.126904 156.930130,17.557194 
z"/>
<path fill="#2E2F2E" opacity="1.000000" stroke="none" 
	d="
M103.986893,88.574287 
	C102.846199,88.717369 101.705498,88.860443 100.200974,89.049156 
	C100.200974,91.292175 100.200974,93.529343 100.200974,97.195244 
	C98.585403,95.783676 97.174385,95.090416 97.217438,94.503906 
	C97.595001,89.361099 95.957863,83.928940 98.019592,79.003166 
	C98.458473,79.043098 98.897354,79.083031 99.336243,79.122963 
	C99.958168,81.428490 100.580093,83.734024 101.788864,86.333580 
	C102.912773,87.276497 103.449837,87.925392 103.986893,88.574287 
z"/>
<path fill="#DDDBDD" opacity="1.000000" stroke="none" 
	d="
M25.321245,59.655914 
	C25.450056,60.659664 25.374228,61.343300 25.204090,62.358215 
	C24.927004,63.312374 24.744226,63.935261 24.320539,64.779724 
	C22.897415,64.577362 21.715200,64.153419 20.590567,63.750118 
	C20.145281,59.605648 19.685226,55.401070 19.327877,51.187778 
	C19.323011,51.130424 20.614342,50.963135 21.650419,50.923397 
	C23.038965,53.778358 24.077785,56.557083 25.321245,59.655914 
z"/>
<path fill="#161616" opacity="1.000000" stroke="none" 
	d="
M193.151031,83.997101 
	C196.306198,77.875298 203.620575,76.982819 212.190292,82.323952 
	C206.179291,81.977356 201.507523,81.707985 195.580872,81.366249 
	C197.101257,84.262489 197.771408,85.539101 198.441574,86.815720 
	C198.086639,87.227295 197.731720,87.638870 197.376801,88.050453 
	C195.971832,86.826118 194.566864,85.601791 193.151031,83.997101 
z"/>
<path fill="#1F201F" opacity="1.000000" stroke="none" 
	d="
M62.953812,84.457687 
	C62.925095,83.246063 62.977333,82.492142 62.939445,81.369141 
	C63.553238,80.269318 64.257156,79.538567 65.790398,77.946892 
	C65.790398,84.908119 65.790398,90.412613 65.790398,95.970932 
	C63.086468,95.304268 63.086468,95.304268 62.953812,84.457687 
z"/>
<path fill="#191A18" opacity="1.000000" stroke="none" 
	d="
M218.694885,82.701408 
	C217.732925,82.738319 217.133926,82.477173 216.305328,82.123161 
	C220.127975,77.912399 225.936691,77.608429 232.795944,82.403358 
	C228.216583,82.403358 223.637207,82.403358 218.694885,82.701408 
z"/>
<path fill="#AD324C" opacity="1.000000" stroke="none" 
	d="
M107.007988,23.113890 
	C110.372086,23.058159 113.736191,23.002428 117.552643,23.404476 
	C118.006912,24.827328 118.008827,25.792402 118.010735,26.757475 
	C114.343834,26.847496 110.676941,26.937519 106.549324,26.740097 
	C106.395065,25.339731 106.701530,24.226810 107.007988,23.113890 
z"/>
<path fill="#C71C43" opacity="1.000000" stroke="none" 
	d="
M135.062561,18.033918 
	C136.247635,18.186998 137.432709,18.340076 138.837189,18.966713 
	C139.056625,19.440273 139.100021,19.825869 138.821503,19.970509 
	C138.280319,20.431686 138.017654,20.748222 137.564941,21.252808 
	C137.578873,22.081821 137.782837,22.722786 137.989822,23.730309 
	C138.000793,25.074526 138.008759,26.052189 138.016724,27.029850 
	C138.018799,28.404072 138.020859,29.778296 137.967529,31.750023 
	C137.560547,33.133835 137.208939,33.920147 136.857346,34.706459 
	C136.500183,34.744156 136.143036,34.781857 135.454163,34.320435 
	C135.102509,28.558847 135.082535,23.296383 135.062561,18.033918 
z"/>
<path fill="#2C2D2B" opacity="1.000000" stroke="none" 
	d="
M87.971550,90.131714 
	C85.570549,89.828072 83.169556,89.524429 80.768555,89.220779 
	C80.781883,88.711021 80.795204,88.201271 80.808525,87.691513 
	C84.527130,87.691513 88.245735,87.691513 92.575241,87.691513 
	C92.286255,88.808998 91.909309,90.266624 90.920227,91.971588 
	C89.529243,91.523186 88.750397,90.827446 87.971550,90.131714 
z"/>
<path fill="#A04A5C" opacity="1.000000" stroke="none" 
	d="
M137.327209,34.806370 
	C137.208939,33.920147 137.560547,33.133835 138.079941,32.069195 
	C141.579727,31.818163 144.924423,31.687031 148.237274,31.952820 
	C149.514740,32.055313 150.719849,33.059578 151.957932,33.652985 
	C151.828323,34.070751 151.698700,34.488514 151.569092,34.906281 
	C146.978424,34.906281 142.387756,34.906281 137.327209,34.806370 
z"/>
<path fill="#A43A52" opacity="1.000000" stroke="none" 
	d="
M178.384247,34.761154 
	C177.960800,34.429520 177.946884,34.174202 177.907349,33.537811 
	C182.147217,33.156738 186.412689,33.156738 190.678162,33.156738 
	C190.692978,32.870049 190.707794,32.583359 190.722610,32.296669 
	C187.692032,32.086891 184.661453,31.877110 181.592346,31.330669 
	C181.721848,30.911180 181.889877,30.828356 182.057907,30.745529 
	C185.058197,30.759523 188.058502,30.773516 191.799652,30.946415 
	C193.027756,32.057499 193.514969,33.009678 193.725555,33.985950 
	C192.973099,34.252926 192.497284,34.495804 192.021454,34.738686 
	C187.612228,34.771618 183.202988,34.804546 178.384247,34.761154 
z"/>
<path fill="#343234" opacity="1.000000" stroke="none" 
	d="
M200.742203,40.609760 
	C194.145676,40.688820 187.673157,40.351196 181.092560,39.632309 
	C187.038345,39.166832 193.092194,39.049942 199.145996,39.051514 
	C199.719498,39.051662 200.292801,39.794857 200.742203,40.609760 
z"/>
<path fill="#C52449" opacity="1.000000" stroke="none" 
	d="
M106.782623,22.952532 
	C106.701530,24.226810 106.395065,25.339731 106.098206,26.799229 
	C105.856247,28.854000 105.604675,30.562191 104.844330,32.531628 
	C101.644569,28.090170 103.385406,23.322388 104.240593,18.507154 
	C104.794418,19.638590 105.348236,20.770027 105.902061,21.901463 
	C106.120461,22.198034 106.338860,22.494604 106.782623,22.952532 
z"/>
<path fill="#A62E48" opacity="1.000000" stroke="none" 
	d="
M119.166824,21.961781 
	C119.099739,20.501669 119.032646,19.041557 118.964928,17.567785 
	C121.534386,16.705008 123.180435,16.334642 123.402092,19.874577 
	C124.165977,32.074291 123.815216,33.723305 118.997650,33.681728 
	C118.997650,32.100304 118.997650,30.504845 119.325363,28.728481 
	C119.993813,29.558445 120.334564,30.569317 120.675308,31.580187 
	C120.951042,31.549026 121.226768,31.517864 121.502502,31.486704 
	C121.502502,27.628424 121.502502,23.770144 121.502502,19.422094 
	C120.578461,20.426846 119.872643,21.194315 119.166824,21.961781 
z"/>
<path fill="#A04A5C" opacity="1.000000" stroke="none" 
	d="
M134.901306,17.788429 
	C135.082535,23.296383 135.102509,28.558847 135.188538,34.266571 
	C134.484360,33.722103 133.101639,32.763626 133.049286,31.737274 
	C132.815018,27.145723 132.959961,22.534826 133.043945,17.468414 
	C133.659943,17.184923 134.199997,17.363932 134.901306,17.788429 
z"/>
<path fill="#C02544" opacity="1.000000" stroke="none" 
	d="
M119.015564,22.198765 
	C119.872643,21.194315 120.578461,20.426846 121.502502,19.422094 
	C121.502502,23.770144 121.502502,27.628424 121.502502,31.486704 
	C121.226768,31.517864 120.951042,31.549026 120.675308,31.580187 
	C120.334564,30.569317 119.993813,29.558445 119.415680,28.297588 
	C118.949074,27.731085 118.719849,27.414570 118.250687,26.927765 
	C118.008827,25.792402 118.006912,24.827328 118.002090,23.500343 
	C118.287560,22.904203 118.575935,22.669975 119.015564,22.198765 
z"/>
<path fill="#8D3A4D" opacity="1.000000" stroke="none" 
	d="
M105.985321,21.482471 
	C105.348236,20.770027 104.794418,19.638590 104.240593,18.507154 
	C103.385406,23.322388 101.644569,28.090170 104.743362,32.829292 
	C104.472336,33.667278 103.793518,34.468845 103.114700,35.270412 
	C102.725189,34.993046 102.335678,34.715683 101.946167,34.438320 
	C101.946167,28.526848 101.946167,22.615377 101.946167,16.454744 
	C103.342110,16.454744 104.555916,16.454744 106.068573,16.454744 
	C106.068573,18.134592 106.068573,19.599037 105.985321,21.482471 
z"/>
<path fill="#A7344D" opacity="1.000000" stroke="none" 
	d="
M181.011963,26.878176 
	C183.340775,26.431919 185.669586,25.985664 187.941254,25.550362 
	C186.062973,25.031506 184.130737,24.497742 182.093552,23.615566 
	C184.631500,23.204861 187.274414,23.142567 190.396667,23.514877 
	C190.960663,24.985920 191.045303,26.022360 191.129944,27.058800 
	C188.405396,27.125235 185.680862,27.191669 182.256409,27.148687 
	C181.374985,26.985573 181.193466,26.931873 181.011963,26.878176 
z"/>
<path fill="#9B2941" opacity="1.000000" stroke="none" 
	d="
M149.031067,27.037374 
	C145.999329,27.076880 142.967606,27.116386 139.761002,26.783508 
	C142.020218,26.180231 144.454300,25.949341 146.820206,25.724916 
	C144.825317,24.964251 142.887085,24.225187 141.385117,23.429253 
	C143.868637,23.260708 145.915894,23.149031 147.963135,23.037354 
	C148.129745,23.062180 148.296341,23.087006 148.723511,23.550972 
	C148.999756,25.005867 149.015411,26.021622 149.031067,27.037374 
z"/>
<path fill="#E5A8B3" opacity="1.000000" stroke="none" 
	d="
M147.919586,22.715639 
	C145.915894,23.149031 143.868637,23.260708 141.358765,23.321657 
	C140.896149,23.270929 140.977158,23.064722 141.031677,22.715515 
	C140.150299,21.927172 139.214417,21.488033 138.148087,21.067215 
	C138.017639,21.085535 137.755005,21.064758 137.755005,21.064758 
	C138.017654,20.748222 138.280319,20.431686 139.268509,20.033110 
	C143.368698,20.084736 146.743362,20.218399 150.118011,20.352060 
	C149.370682,21.032681 148.623352,21.713305 147.919586,22.715639 
z"/>
<path fill="#7A797B" opacity="1.000000" stroke="none" 
	d="
M219.604675,38.951935 
	C216.287811,42.252476 212.259460,40.973713 208.098633,39.430080 
	C211.692657,38.982929 215.424973,38.898361 219.604675,38.951935 
z"/>
<path fill="#1B191C" opacity="1.000000" stroke="none" 
	d="
M31.394245,70.645599 
	C30.235949,68.887344 29.434401,67.215981 28.401485,65.062164 
	C30.589851,65.433372 32.296829,65.722916 34.370003,66.021210 
	C33.741127,67.597466 32.746059,69.164978 31.394245,70.645599 
z"/>
<path fill="#30312F" opacity="1.000000" stroke="none" 
	d="
M104.417946,88.671776 
	C103.449837,87.925392 102.912773,87.276497 102.205704,86.421249 
	C104.728935,86.157539 107.422173,86.100182 110.559143,86.119949 
	C111.006172,86.785881 111.009460,87.374687 111.012009,88.257904 
	C108.957184,88.624626 106.903091,88.696945 104.417946,88.671776 
z"/>
<path fill="#FFE6F6" opacity="1.000000" stroke="none" 
	d="
M151.330872,76.385887 
	C158.032791,76.057076 165.047607,75.998032 172.522034,76.029793 
	C165.869019,76.298958 158.756393,76.477303 151.330872,76.385887 
z"/>
<path fill="#323033" opacity="1.000000" stroke="none" 
	d="
M111.390656,69.332794 
	C113.128120,67.268272 115.229881,65.171593 117.682953,63.043461 
	C115.941162,65.108223 113.848061,67.204437 111.390656,69.332794 
z"/>
<path fill="#FFE6F6" opacity="1.000000" stroke="none" 
	d="
M101.331581,76.386536 
	C106.700974,76.056053 112.382935,75.994843 118.523750,76.025703 
	C113.203125,76.297112 107.423630,76.476456 101.331581,76.386536 
z"/>
<path fill="#B32543" opacity="1.000000" stroke="none" 
	d="
M140.922485,23.378525 
	C142.887085,24.225187 144.825317,24.964251 146.820206,25.724916 
	C144.454300,25.949341 142.020218,26.180231 139.316010,26.694767 
	C138.877457,27.050768 138.709061,27.123125 138.278687,27.112667 
	C138.008759,26.052189 138.000793,25.074526 138.037720,23.603230 
	C138.082596,23.109594 138.070267,22.838270 138.425873,22.928905 
	C139.513382,23.034603 140.245270,23.049664 140.977158,23.064724 
	C140.977158,23.064722 140.896149,23.270929 140.922485,23.378525 
z"/>
<path fill="#C7C6C7" opacity="1.000000" stroke="none" 
	d="
M54.834187,45.877468 
	C54.947948,43.854252 55.061707,41.831032 55.093033,39.377747 
	C55.586899,38.807247 56.163204,38.666817 56.868134,38.756302 
	C57.020000,40.989616 57.043247,42.993015 56.744133,45.510185 
	C55.892582,45.975128 55.363384,45.926300 54.834187,45.877468 
z"/>
<path fill="#343234" opacity="1.000000" stroke="none" 
	d="
M190.046356,65.833511 
	C190.039719,67.205605 190.033081,68.577690 190.021576,70.361084 
	C189.250397,70.793381 188.484085,70.814377 187.347122,70.736198 
	C187.304962,68.825363 187.633438,67.013695 188.288879,64.787827 
	C189.092682,64.860245 189.569519,65.346878 190.046356,65.833511 
z"/>
<path fill="#F1C5CF" opacity="1.000000" stroke="none" 
	d="
M180.234329,20.629089 
	C184.238007,20.311338 188.166901,20.297161 192.540878,20.403944 
	C189.077728,21.046350 185.169510,21.567799 181.165710,22.462166 
	C180.766602,22.200943 180.463074,21.566803 180.234329,20.629089 
z"/>
<path fill="#FFE6F6" opacity="1.000000" stroke="none" 
	d="
M206.331818,76.398239 
	C210.702042,76.069878 215.385010,76.007462 220.524551,76.039185 
	C216.202271,76.310287 211.423416,76.487228 206.331818,76.398239 
z"/>
<path fill="#A5A3A6" opacity="1.000000" stroke="none" 
	d="
M86.653244,38.880836 
	C86.965897,40.984444 86.936928,42.973652 86.712875,45.500912 
	C86.049042,46.053120 85.580292,46.067276 85.111542,46.081429 
	C85.005524,44.036999 84.899513,41.992569 84.856346,39.512291 
	C85.383347,38.973106 85.847488,38.869774 86.653244,38.880836 
z"/>
<path fill="#8E2B3F" opacity="1.000000" stroke="none" 
	d="
M150.437256,20.323147 
	C146.743362,20.218399 143.368698,20.084736 139.547028,19.888470 
	C139.100021,19.825869 139.056625,19.440273 139.063202,19.246933 
	C143.155350,19.140625 147.240891,19.227661 151.624939,19.589386 
	C151.534439,20.007460 151.145462,20.150845 150.437256,20.323147 
z"/>
<path fill="#FFE6F6" opacity="1.000000" stroke="none" 
	d="
M66.326759,76.391068 
	C70.036812,76.063492 74.055504,76.002045 78.527924,76.034256 
	C74.866241,76.304344 70.750816,76.480774 66.326759,76.391068 
z"/>
<path fill="#AA3B53" opacity="1.000000" stroke="none" 
	d="
M63.837151,16.850567 
	C64.525658,15.607364 65.214165,14.364161 66.157684,12.660508 
	C67.068260,14.060884 67.656723,14.965875 68.231842,16.312441 
	C68.218491,16.754015 67.972412,17.021971 67.704948,16.914433 
	C66.337288,16.915247 65.237091,17.023602 64.062149,17.061405 
	C63.987408,16.990850 63.837151,16.850567 63.837151,16.850567 
z"/>
<path fill="#323033" opacity="1.000000" stroke="none" 
	d="
M37.902142,57.709312 
	C36.958187,57.382111 36.180721,56.735519 35.403255,56.088928 
	C36.392773,55.425758 37.382286,54.762589 38.711113,54.060516 
	C38.723160,55.144382 38.395897,56.267147 37.902142,57.709312 
z"/>
<path fill="#FFE6F6" opacity="1.000000" stroke="none" 
	d="
M88.315262,76.378418 
	C91.042870,76.055023 94.067162,75.994812 97.536255,76.025925 
	C94.858017,76.292038 91.734978,76.466820 88.315262,76.378418 
z"/>
<path fill="#FFE6F6" opacity="1.000000" stroke="none" 
	d="
M184.317871,76.391182 
	C187.043411,76.067436 190.067551,76.004204 193.537003,76.030121 
	C190.860367,76.296738 187.738434,76.474220 184.317871,76.391182 
z"/>
<path fill="#F3F4F2" opacity="1.000000" stroke="none" 
	d="
M87.849518,90.380997 
	C88.750397,90.827446 89.529243,91.523186 90.659927,92.233025 
	C90.292747,92.833435 89.573723,93.419746 88.531700,94.006973 
	C87.989716,93.661926 87.770737,93.315964 87.270477,92.827606 
	C87.235298,92.000229 87.481392,91.315254 87.849518,90.380997 
z"/>
<path fill="#323033" opacity="1.000000" stroke="none" 
	d="
M32.868759,54.047287 
	C33.079895,54.936726 32.974689,55.810589 32.869484,56.684452 
	C32.239384,55.687904 31.609283,54.691360 30.997005,53.330685 
	C31.527357,53.321609 32.039890,53.676659 32.868759,54.047287 
z"/>
<path fill="#323033" opacity="1.000000" stroke="none" 
	d="
M30.613256,50.701469 
	C29.767689,49.397186 28.959290,47.746185 28.247189,45.714325 
	C29.112467,47.007233 29.881445,48.680988 30.613256,50.701469 
z"/>
<path fill="#323033" opacity="1.000000" stroke="none" 
	d="
M36.420708,45.597328 
	C36.124916,47.214184 35.564960,49.061047 34.660652,51.008461 
	C34.929718,49.348450 35.543133,47.587891 36.420708,45.597328 
z"/>
<path fill="#343234" opacity="1.000000" stroke="none" 
	d="
M182.986847,47.306374 
	C182.903580,48.643406 182.590683,50.220768 182.010468,51.917118 
	C182.081177,50.539639 182.419189,49.043171 182.986847,47.306374 
z"/>
<path fill="#343234" opacity="1.000000" stroke="none" 
	d="
M200.388550,56.692726 
	C199.632996,55.340416 198.926544,53.645779 198.339355,51.571159 
	C199.118301,52.910919 199.777969,54.630665 200.388550,56.692726 
z"/>
<path fill="#343234" opacity="1.000000" stroke="none" 
	d="
M179.997543,57.307472 
	C179.917114,58.643761 179.604996,60.217934 179.028061,61.913963 
	C179.097443,60.539005 179.431656,59.042179 179.997543,57.307472 
z"/>
<path fill="#AA3B53" opacity="1.000000" stroke="none" 
	d="
M58.792595,24.811394 
	C59.453419,23.461111 60.205097,22.188082 61.335152,20.832172 
	C61.713535,20.749290 62.016663,21.017344 61.974121,21.358635 
	C60.977104,22.813139 60.022625,23.926348 59.068150,25.039558 
	C59.068150,25.039558 58.883450,24.888647 58.792595,24.811394 
z"/>
<path fill="#E6BBC3" opacity="1.000000" stroke="none" 
	d="
M191.485291,27.016426 
	C191.045303,26.022360 190.960663,24.985920 190.831802,23.562037 
	C194.057602,23.632036 193.359802,25.189215 191.485291,27.016426 
z"/>
<path fill="#FFE6F6" opacity="1.000000" stroke="none" 
	d="
M25.302963,76.382492 
	C27.383730,76.062614 29.747965,75.998840 32.547329,76.024796 
	C30.517117,76.289215 28.051771,76.463913 25.302963,76.382492 
z"/>
<path fill="#AA3B53" opacity="1.000000" stroke="none" 
	d="
M61.564243,20.612743 
	C62.044167,19.383650 62.673386,18.291107 63.569878,17.024565 
	C63.837151,16.850567 63.987408,16.990850 64.016579,17.442125 
	C64.037064,18.922710 64.028389,19.952023 64.019714,20.981333 
	C64.019714,20.981333 63.999596,21.000402 63.662567,20.998249 
	C62.889244,21.003178 62.452953,21.010262 62.016663,21.017344 
	C62.016663,21.017344 61.713535,20.749290 61.564243,20.612743 
z"/>
<path fill="#A85669" opacity="1.000000" stroke="none" 
	d="
M162.030090,33.325172 
	C162.821838,33.068954 163.671722,33.132664 164.937744,33.298119 
	C164.865005,34.140545 164.376129,34.881233 163.887238,35.621925 
	C163.287582,34.962990 162.687897,34.304047 162.030090,33.325172 
z"/>
<path fill="#FFE6F6" opacity="1.000000" stroke="none" 
	d="
M140.288544,76.367813 
	C142.053467,76.052589 144.090057,75.991669 146.554901,76.022018 
	C144.842163,76.282890 142.701187,76.452499 140.288544,76.367813 
z"/>
<path fill="#E6BBC3" opacity="1.000000" stroke="none" 
	d="
M194.002182,33.961853 
	C193.514969,33.009678 193.027756,32.057499 192.248474,30.916145 
	C195.208984,29.172005 195.088806,31.307039 194.651489,33.780586 
	C194.353333,34.098305 194.002182,33.961857 194.002182,33.961853 
z"/>
<path fill="#323033" opacity="1.000000" stroke="none" 
	d="
M108.211472,70.356079 
	C108.666122,69.872932 109.358620,69.488411 110.170807,69.395935 
	C109.676765,69.943542 109.063034,70.199120 108.211472,70.356079 
z"/>
<path fill="#AA3B53" opacity="1.000000" stroke="none" 
	d="
M70.523842,19.559383 
	C71.111145,20.378620 71.698441,21.197857 72.386467,22.304226 
	C72.487198,22.591360 72.231468,22.804468 71.820221,22.763485 
	C70.934013,21.818983 70.459045,20.915464 70.119293,19.899147 
	C70.254524,19.786345 70.523842,19.559383 70.523842,19.559383 
z"/>
<path fill="#FFE6F6" opacity="1.000000" stroke="none" 
	d="
M197.260223,76.372391 
	C198.401215,76.071800 199.784515,76.013123 201.574280,76.048599 
	C200.488007,76.299942 198.995270,76.457123 197.260223,76.372391 
z"/>
<path fill="#FFE6F6" opacity="1.000000" stroke="none" 
	d="
M229.262527,76.371658 
	C230.408203,76.066505 231.798401,76.004158 233.598663,76.025124 
	C232.508179,76.277115 231.007599,76.445801 229.262527,76.371658 
z"/>
<path fill="#AA3B53" opacity="1.000000" stroke="none" 
	d="
M68.342819,16.621239 
	C69.078522,17.318016 69.689896,18.147573 70.412552,19.268257 
	C70.523842,19.559383 70.254524,19.786345 69.835541,19.753368 
	C68.935181,18.820917 68.453796,17.921444 67.972412,17.021971 
	C67.972412,17.021971 68.218491,16.754015 68.342819,16.621239 
z"/>
<path fill="#A85669" opacity="1.000000" stroke="none" 
	d="
M159.007660,20.665621 
	C158.372849,20.192823 157.693481,19.408039 157.045471,18.264420 
	C157.705566,18.721603 158.334335,19.537619 159.007660,20.665621 
z"/>
<path fill="#343234" opacity="1.000000" stroke="none" 
	d="
M197.292328,46.602898 
	C196.845627,46.587463 196.544388,46.144028 196.243149,45.700584 
	C196.605286,45.503056 196.967422,45.305527 197.527954,45.213047 
	C197.630157,45.603691 197.533966,45.889294 197.292328,46.602898 
z"/>
<path fill="#AE546B" opacity="1.000000" stroke="none" 
	d="
M11.706236,73.215248 
	C12.277952,73.884552 12.503020,74.593063 12.875292,75.547516 
	C12.468193,74.947113 11.913890,74.100792 11.706236,73.215248 
z"/>
<path fill="#AE4E64" opacity="1.000000" stroke="none" 
	d="
M149.396530,26.947784 
	C149.015411,26.021622 148.999756,25.005867 148.969238,23.609810 
	C149.223572,24.439070 149.492783,25.648632 149.396530,26.947784 
z"/>
<path fill="#A85669" opacity="1.000000" stroke="none" 
	d="
M154.659424,21.659889 
	C155.259140,22.149849 155.912048,22.940607 156.495239,24.066225 
	C155.854553,23.587618 155.283585,22.774153 154.659424,21.659889 
z"/>
<path fill="#F3F3F2" opacity="1.000000" stroke="none" 
	d="
M18.520958,90.725533 
	C18.545067,91.247253 18.309652,91.525780 18.074240,91.804314 
	C17.765038,91.218887 17.455835,90.633461 17.197048,89.763031 
	C17.585457,89.812798 17.923447,90.147568 18.520958,90.725533 
z"/>
<path fill="#A04F62" opacity="1.000000" stroke="none" 
	d="
M193.725555,33.985954 
	C194.002182,33.961857 194.353333,34.098305 194.534698,34.147678 
	C194.008408,34.433933 193.300735,34.670811 192.307266,34.823189 
	C192.497284,34.495804 192.973099,34.252926 193.725555,33.985954 
z"/>
<path fill="#A85669" opacity="1.000000" stroke="none" 
	d="
M165.674438,33.140751 
	C165.685272,32.568069 165.943817,31.855824 166.517303,31.078594 
	C166.528870,31.676136 166.225494,32.338661 165.674438,33.140751 
z"/>
<path fill="#A85669" opacity="1.000000" stroke="none" 
	d="
M160.216125,22.589352 
	C159.853439,22.455441 159.445953,22.020002 159.034164,21.265472 
	C159.410355,21.393530 159.790848,21.840677 160.216125,22.589352 
z"/>
<path fill="#A85669" opacity="1.000000" stroke="none" 
	d="
M160.818451,31.429684 
	C161.182312,31.557438 161.584656,31.981171 161.988678,32.718369 
	C161.612534,32.596447 161.234726,32.161053 160.818451,31.429684 
z"/>
<path fill="#A04F62" opacity="1.000000" stroke="none" 
	d="
M170.484970,17.905249 
	C170.551071,18.362106 170.368683,18.951786 169.847443,19.541973 
	C169.751236,19.041010 169.993851,18.539541 170.484970,17.905249 
z"/>
<path fill="#A85669" opacity="1.000000" stroke="none" 
	d="
M156.570251,24.820065 
	C156.935883,24.908125 157.363205,25.255945 157.724731,25.927422 
	C157.316605,25.860662 156.974274,25.470243 156.570251,24.820065 
z"/>
<path fill="#A85669" opacity="1.000000" stroke="none" 
	d="
M157.712372,26.558846 
	C158.083923,26.686882 158.505035,27.114244 158.919525,27.871815 
	C158.529251,27.754070 158.145599,27.306120 157.712372,26.558846 
z"/>
<path fill="#E6BBC3" opacity="1.000000" stroke="none" 
	d="
M180.819199,27.044943 
	C181.193466,26.931873 181.374985,26.985573 181.806030,27.174782 
	C181.676804,27.579582 181.298065,27.848871 180.682114,28.131021 
	C180.505432,27.833158 180.565933,27.522434 180.819199,27.044943 
z"/>
<path fill="#A85669" opacity="1.000000" stroke="none" 
	d="
M159.571259,29.515789 
	C159.943039,29.642778 160.398651,30.066341 160.834076,30.834553 
	C160.427643,30.723589 160.041367,30.267979 159.571259,29.515789 
z"/>
<path fill="#E6BBC3" opacity="1.000000" stroke="none" 
	d="
M181.902527,30.559366 
	C181.889877,30.828356 181.721848,30.911180 181.283676,31.070530 
	C180.780777,30.890434 180.548019,30.633818 180.367142,30.119656 
	C180.861725,30.032475 181.304428,30.202839 181.902527,30.559366 
z"/>
<path fill="#A04F62" opacity="1.000000" stroke="none" 
	d="
M169.257111,19.767342 
	C169.398315,19.972557 169.335724,20.311577 169.000763,20.725607 
	C168.712875,20.456068 168.821167,20.156242 169.257111,19.767342 
z"/>
<path fill="#AE546B" opacity="1.000000" stroke="none" 
	d="
M234.212051,75.832932 
	C234.066330,75.512794 234.261322,75.304268 234.724792,75.069855 
	C234.774826,75.277191 234.627991,75.577385 234.212051,75.832932 
z"/>
<path fill="#171518" opacity="1.000000" stroke="none" 
	d="
M83.036339,70.636322 
	C83.068909,70.398682 83.398888,70.236557 83.827690,70.313751 
	C83.728935,70.605980 83.531342,70.658905 83.036339,70.636322 
z"/>
<path fill="#EFEEEF" opacity="1.000000" stroke="none" 
	d="
M69.400574,87.452744 
	C69.600250,87.557449 69.528511,87.645172 69.567802,87.696098 
	C69.336418,87.663681 69.065742,87.580338 68.795067,87.496994 
	C68.930344,87.447342 69.065620,87.397697 69.400574,87.452744 
z"/>
<path fill="#A04F62" opacity="1.000000" stroke="none" 
	d="
M168.529114,20.885180 
	C168.859756,21.109959 168.790939,21.418970 168.351105,21.831028 
	C168.199905,21.650434 168.249756,21.328882 168.529114,20.885180 
z"/>
<path fill="#7A797B" opacity="1.000000" stroke="none" 
	d="
M206.288055,45.141178 
	C206.723679,44.845001 206.947586,44.978268 207.099487,45.476288 
	C206.804977,45.592018 206.487930,45.501881 206.288055,45.141178 
z"/>
<path fill="#F3F4F2" opacity="1.000000" stroke="none" 
	d="
M75.907837,92.506500 
	C75.696091,92.610413 75.412560,92.560913 75.197037,92.261375 
	C75.498596,92.053070 75.688934,92.166985 75.907837,92.506500 
z"/>
<path fill="#FDFCFE" opacity="1.000000" stroke="none" 
	d="
M85.067093,46.516403 
	C85.580292,46.067276 86.049042,46.053120 86.845734,45.908234 
	C89.499962,45.434231 90.961983,45.819660 90.798660,48.792114 
	C90.570541,52.943890 90.931099,57.132450 90.607101,61.271400 
	C90.525940,62.308167 88.792145,63.215569 87.408989,64.299255 
	C86.014687,62.849876 85.029282,61.283661 84.020988,59.681053 
	C82.186165,59.681053 79.974533,59.681053 77.391884,59.681053 
	C77.209503,60.921047 76.988647,62.422626 76.773979,63.882118 
	C69.688339,64.392242 69.688339,64.392242 70.136246,58.085217 
	C72.351074,57.965675 74.618759,57.843281 77.502350,57.687641 
	C77.502350,55.480774 77.502350,53.222027 77.335876,50.425224 
	C77.169411,49.887169 77.270752,49.524113 77.270752,49.524113 
	C80.012917,49.143204 84.342064,53.544010 85.067093,46.516403 
z"/>
<path fill="#FAF9FB" opacity="1.000000" stroke="none" 
	d="
M54.379356,45.829544 
	C55.363384,45.926300 55.892582,45.975128 56.813324,45.932915 
	C59.473858,45.412975 60.520798,46.106293 60.436539,48.656895 
	C60.273266,53.599316 60.388805,58.550953 60.388805,63.851624 
	C58.375813,63.946480 56.617870,64.029320 54.417343,64.259918 
	C53.519936,64.367203 53.065109,64.326729 52.290592,64.418076 
	C51.865803,59.074375 51.667969,53.597321 51.758678,48.125046 
	C51.771824,47.332153 53.168224,46.562195 54.379356,45.829544 
z"/>
<path fill="#F8F6F8" opacity="1.000000" stroke="none" 
	d="
M77.427490,49.103065 
	C77.270752,49.524113 77.169411,49.887169 77.122169,50.066719 
	C76.665367,50.489090 76.264175,50.923157 75.844772,50.941521 
	C74.060036,51.019676 72.269905,50.974739 70.163239,50.974739 
	C70.163239,49.246662 70.163239,47.721378 70.163239,45.540627 
	C72.613083,47.241478 76.957184,42.520412 77.427490,49.103065 
z"/>
<path fill="#171518" opacity="1.000000" stroke="none" 
	d="
M58.252495,66.028030 
	C58.428406,65.911407 58.605022,65.968094 58.781639,66.024796 
	C58.605495,66.083641 58.429352,66.142487 58.252495,66.028030 
z"/>
<path fill="#171518" opacity="1.000000" stroke="none" 
	d="
M63.453484,69.411423 
	C63.522339,69.371277 63.384624,69.451561 63.453484,69.411423 
z"/>
<path fill="#F1EFF1" opacity="1.000000" stroke="none" 
	d="
M110.358948,54.135742 
	C109.807678,62.330521 108.011826,64.082863 100.428391,63.928734 
	C100.428391,58.077801 100.428391,52.205177 100.428391,46.313316 
	C106.712601,45.194271 108.986931,46.875683 110.358948,54.135742 
z"/>
<path fill="#D2D0D2" opacity="1.000000" stroke="none" 
	d="
M190.286530,65.541840 
	C189.569519,65.346878 189.092682,64.860245 188.301910,64.433380 
	C185.227966,63.632420 185.227966,63.632420 186.403198,60.223129 
	C188.954681,61.207130 193.293945,58.018314 193.926697,63.695278 
	C192.720917,64.246704 191.623810,64.748444 190.286530,65.541840 
z"/>
<path fill="#7A797B" opacity="1.000000" stroke="none" 
	d="
M206.671356,64.730698 
	C207.024475,66.155128 207.037964,67.836861 207.032120,70.024246 
	C206.785767,68.682602 206.558731,66.835304 206.671356,64.730698 
z"/>
<path fill="#1B191C" opacity="1.000000" stroke="none" 
	d="
M46.538353,56.624092 
	C45.851994,54.898434 45.136147,53.316231 45.295582,51.827778 
	C45.586449,49.112286 46.248432,46.406689 47.058205,43.790638 
	C47.405064,42.670097 48.509739,41.784126 50.003662,39.833973 
	C50.003662,45.540962 49.970200,49.618748 50.017223,53.695606 
	C50.042236,55.864281 49.548798,57.376461 46.538353,56.624092 
z"/>
<path fill="#F6F7F5" opacity="1.000000" stroke="none" 
	d="
M170.861420,87.946487 
	C172.659119,81.323906 179.642136,79.052017 184.478119,83.108734 
	C187.582260,85.712677 187.420929,90.024574 184.126999,92.492958 
	C179.520370,95.945076 173.070984,93.929436 170.861420,87.946487 
z"/>
<path fill="#FCFAFB" opacity="1.000000" stroke="none" 
	d="
M46.562946,88.884903 
	C47.306854,90.138504 47.613880,91.280144 47.936455,92.778778 
	C46.814396,93.231636 45.676792,93.327484 42.618511,93.585175 
	C44.304638,91.271873 45.215355,90.022408 46.562946,88.884903 
z"/>
<path fill="#FCFAFB" opacity="1.000000" stroke="none" 
	d="
M47.329960,85.977051 
	C47.319695,85.400650 47.638988,84.909294 47.958286,84.417938 
	C48.276924,84.720482 48.595562,85.023018 48.956776,85.611298 
	C48.552738,85.952049 48.106133,86.007072 47.329960,85.977051 
z"/>
<path fill="#C5304F" opacity="1.000000" stroke="none" 
	d="
M67.704948,16.914433 
	C68.453796,17.921444 68.935181,18.820917 69.700317,19.866169 
	C70.459045,20.915464 70.934013,21.818983 71.692200,22.869850 
	C71.065666,24.272537 70.155914,25.527876 70.040253,25.687477 
	C67.750717,23.700914 66.240395,22.390453 64.374893,21.030663 
	C64.028389,19.952023 64.037064,18.922710 64.091324,17.512680 
	C65.237091,17.023602 66.337288,16.915247 67.704948,16.914433 
z"/>
<path fill="#C5304F" opacity="1.000000" stroke="none" 
	d="
M61.974121,21.358635 
	C62.452953,21.010262 62.889244,21.003178 63.652542,21.007818 
	C64.101135,22.664589 64.222725,24.309639 64.404633,26.770750 
	C62.597183,26.330288 61.033012,25.949110 59.268494,25.303745 
	C60.022625,23.926348 60.977104,22.813139 61.974121,21.358635 
z"/>
<path fill="#C5304F" opacity="1.000000" stroke="none" 
	d="
M57.712242,26.641132 
	C57.849937,26.835035 57.972935,27.100307 58.095932,27.365582 
	C58.004147,27.268625 57.912357,27.171669 57.688148,26.910378 
	C57.555729,26.746040 57.697548,26.712502 57.712242,26.641132 
z"/>
<path fill="#AE4E64" opacity="1.000000" stroke="none" 
	d="
M138.034698,23.236671 
	C137.782837,22.722786 137.578873,22.081821 137.564941,21.252808 
	C137.755005,21.064758 138.017639,21.085535 138.091278,21.362396 
	C138.133377,22.038927 138.101822,22.438599 138.070267,22.838270 
	C138.070267,22.838270 138.082596,23.109594 138.034698,23.236671 
z"/>
<path fill="#FEECEF" opacity="1.000000" stroke="none" 
	d="
M138.425873,22.928905 
	C138.101822,22.438599 138.133377,22.038927 138.221741,21.344076 
	C139.214417,21.488033 140.150299,21.927172 141.031677,22.715515 
	C140.245270,23.049664 139.513382,23.034603 138.425873,22.928905 
z"/>
</svg>